SplineFontDB: 3.0
FontName: dof-test-regular
FullName: dof-test-regular
FamilyName: dof-test
Weight: regular
Copyright: DOF were created by Paul Bernhard and written in METAFONT (Donald E. Knuth). DOF is licensed under SIL Open Font License (OFL): http://scripts.sil.org/cms/scripts/page.php?site_id=nrsi&id=OFL . All files available at: https://github.com/paulbernhard/dof/
Version: 1.0
ItalicAngle: 0
UnderlinePosition: -102.4
UnderlineWidth: 51.2
Ascent: 819
Descent: 205
InvalidEm: 0
LayerCount: 2
Layer: 0 0 "Back" 1
Layer: 1 0 "Zeichen" 0
OS2Version: 0
OS2_WeightWidthSlopeOnly: 0
OS2_UseTypoMetrics: 0
CreationTime: 1502189877
ModificationTime: 1502190158
OS2TypoAscent: 0
OS2TypoAOffset: 1
OS2TypoDescent: 0
OS2TypoDOffset: 1
OS2TypoLinegap: 0
OS2WinAscent: 0
OS2WinAOffset: 1
OS2WinDescent: 0
OS2WinDOffset: 1
HheadAscent: 0
HheadAOffset: 1
HheadDescent: 0
HheadDOffset: 1
OS2Vendor: 'PfEd'
DEI: 91125
Encoding: ISO8859-1
UnicodeInterp: none
NameList: AGL For New Fonts
DisplaySize: -48
AntiAlias: 1
FitToEm: 0
BeginPrivate: 3
lenIV 1 4
BlueValues 2 []
ForceBold 5 false
EndPrivate
BeginChars: 260 110

StartChar: exclam
Encoding: 33 33 1
Width: 303
Flags: HW
LayerCount: 2
Fore
SplineSet
137 818 m 0
 145 819 168 818 176 817 c 0
 187 814 195 811 199 807 c 2
 203 803 l 1
 203 444 l 1
 203 85 l 1
 200 82 l 2
 193 73 178 70 153 70 c 0
 127 70 111 73 104 82 c 2
 101 85 l 1
 101 443 l 1
 101 803 l 1
 103 805 l 2
 108 811 121 816 137 818 c 0
136 37 m 0
 151 39 176 37 189 32 c 0
 196 29 203 22 203 18 c 0
 203 15 196 9 189 6 c 0
 167 -1 136 -1 114 6 c 0
 108 9 100 15 100 18 c 0
 100 26 114 34 136 37 c 0
EndSplineSet
EndChar

StartChar: quotedbl
Encoding: 34 34 2
Width: 303
Flags: HW
LayerCount: 2
Fore
SplineSet
66 818 m 0
 74 819 96 818 104 817 c 0
 115 814 123 811 127 807 c 2
 131 803 l 1
 131 740 l 2
 131 667 132 673 121 668 c 0
 101 658 60 658 40 668 c 0
 29 673 30 667 30 740 c 0
 30 801 30 803 32 805 c 0
 37 811 50 816 66 818 c 0
208 818 m 0
 216 819 239 818 247 817 c 0
 258 814 265 811 269 807 c 2
 273 803 l 1
 273 740 l 2
 273 667 274 673 263 668 c 0
 243 658 202 658 182 668 c 0
 171 673 172 667 172 740 c 0
 172 801 172 803 174 805 c 0
 179 811 192 816 208 818 c 0
EndSplineSet
EndChar

StartChar: numbersign
Encoding: 35 35 3
Width: 607
Flags: HW
LayerCount: 2
Fore
SplineSet
259 613 m 0
 268 614 289 613 299 611 c 0
 313 609 325 602 325 596 c 0
 325 594 283 453 275 430 c 0
 275 428 275 428 340 428 c 2
 403 429 l 1
 429 513 l 2
 443 560 456 600 457 601 c 0
 465 612 501 617 529 611 c 0
 543 609 555 602 555 596 c 0
 555 594 514 453 507 430 c 0
 506 428 507 428 524 428 c 0
 543 427 552 426 563 422 c 0
 570 419 577 413 577 410 c 0
 577 406 570 399 563 396 c 0
 551 392 543 391 518 390 c 2
 495 390 l 1
 470 308 l 2
 457 263 445 225 445 225 c 1
 445 225 454 224 464 224 c 0
 489 223 504 220 512 213 c 0
 515 210 515 209 515 206 c 0
 515 202 515 201 512 198 c 0
 503 191 489 187 458 186 c 2
 434 186 l 1
 409 101 l 2
 395 54 382 14 381 13 c 0
 373 2 336 -3 308 3 c 0
 294 5 283 12 283 18 c 0
 283 20 324 161 332 184 c 0
 332 186 332 186 267 186 c 2
 204 186 l 1
 178 101 l 2
 164 54 152 14 151 13 c 0
 143 2 106 -3 78 3 c 0
 64 5 52 12 52 18 c 0
 52 20 93 161 100 184 c 0
 101 186 100 186 83 186 c 0
 64 187 55 189 45 193 c 0
 37 196 31 202 31 205 c 0
 31 209 37 215 45 218 c 0
 56 222 64 223 89 224 c 2
 113 225 l 1
 137 307 l 2
 150 352 162 389 162 389 c 1
 162 389 153 390 143 390 c 0
 118 391 103 394 95 401 c 0
 92 404 92 406 92 410 c 0
 92 413 92 414 95 417 c 0
 104 424 119 427 150 428 c 2
 173 429 l 1
 199 513 l 2
 213 560 225 600 226 601 c 0
 230 606 243 611 259 613 c 0
392 389 m 2
 392 390 364 390 328 390 c 0
 278 390 264 390 264 389 c 0
 262 386 215 225 215 225 c 2
 215 224 244 224 280 224 c 2
 343 225 l 1
 368 307 l 2
 381 352 392 389 392 389 c 2
EndSplineSet
EndChar

StartChar: dollar
Encoding: 36 36 4
Width: 545
Flags: HW
LayerCount: 2
Fore
SplineSet
258 818 m 0
 266 819 289 818 297 817 c 0
 308 814 315 811 319 807 c 2
 324 803 l 1
 324 765 l 1
 324 726 l 1
 330 726 l 1
 391 719 434 703 460 678 c 0
 472 665 480 650 484 634 c 0
 486 624 485 617 482 613 c 0
 475 604 448 599 424 601 c 0
 397 604 384 611 384 621 c 0
 384 628 381 639 378 646 c 0
 369 664 353 678 329 684 c 2
 324 686 l 1
 324 551 l 1
 324 417 l 1
 339 411 l 2
 423 378 464 345 479 299 c 0
 490 266 485 216 468 181 c 0
 446 136 401 107 338 96 c 0
 333 96 327 95 326 94 c 2
 324 94 l 1
 324 55 l 1
 324 16 l 1
 319 12 l 2
 312 5 296 1 274 1 c 0
 250 1 234 4 226 12 c 2
 222 16 l 1
 222 54 l 1
 222 93 l 1
 218 93 l 1
 176 98 149 106 123 117 c 0
 90 132 68 156 62 185 c 0
 60 195 62 202 65 206 c 0
 72 215 99 220 123 218 c 0
 150 215 163 209 163 199 c 0
 163 181 174 158 189 148 c 0
 197 142 202 140 213 136 c 2
 222 133 l 1
 222 267 l 1
 222 401 l 1
 212 404 l 1
 131 435 87 466 68 506 c 0
 59 524 54 542 55 567 c 0
 58 639 94 688 162 711 c 0
 175 716 193 720 206 722 c 0
 211 723 217 724 219 725 c 2
 222 725 l 1
 222 764 l 2
 222 802 222 803 224 805 c 0
 229 811 242 816 258 818 c 0
222 569 m 2
 222 629 222 680 221 680 c 0
 219 680 205 671 199 666 c 0
 179 650 165 622 159 590 c 0
 157 576 157 557 158 545 c 0
 162 509 180 485 218 461 c 1
 222 459 l 1
 222 569 l 2
334 351 m 0
 330 353 326 356 325 356 c 0
 324 357 324 336 324 249 c 2
 324 140 l 1
 328 142 l 2
 336 147 349 159 355 167 c 0
 381 199 391 255 379 295 c 0
 373 315 357 336 334 351 c 0
EndSplineSet
EndChar

StartChar: percent
Encoding: 37 37 5
Width: 667
Flags: HW
LayerCount: 2
Fore
SplineSet
151 823 m 0
 158 824 182 823 190 822 c 0
 212 817 221 807 213 799 c 0
 206 793 196 789 179 787 c 0
 166 786 162 784 155 776 c 0
 139 760 131 730 132 689 c 0
 133 657 138 637 147 618 c 0
 153 605 163 594 166 594 c 0
 169 594 178 605 184 618 c 0
 193 636 198 657 200 688 c 2
 200 705 l 1
 204 708 l 2
 212 715 228 719 251 719 c 0
 274 719 289 715 297 708 c 2
 301 703 l 1
 301 687 l 2
 299 651 294 627 280 602 c 0
 271 587 250 570 231 562 c 0
 223 558 205 554 194 552 c 0
 180 550 147 550 133 553 c 0
 119 555 102 560 93 565 c 0
 60 581 40 612 34 658 c 0
 31 673 30 707 32 721 c 0
 35 755 49 782 69 798 c 0
 85 810 110 819 137 822 c 0
 142 823 149 823 151 823 c 0
571 818 m 0
 579 819 602 818 610 817 c 0
 626 813 638 806 637 800 c 0
 636 796 132 15 127 11 c 0
 120 4 103 1 81 1 c 0
 65 1 55 2 45 6 c 0
 38 9 31 15 31 18 c 0
 31 20 123 164 285 414 c 0
 513 767 539 807 543 810 c 0
 548 813 559 816 571 818 c 0
486 268 m 0
 494 269 518 268 526 267 c 0
 545 262 556 255 552 247 c 0
 548 241 535 235 521 233 c 0
 510 232 505 229 497 221 c 0
 491 215 488 212 483 202 c 0
 474 182 469 162 468 130 c 0
 467 99 471 76 480 58 c 0
 484 48 493 39 500 36 c 0
 503 34 503 34 508 38 c 0
 518 46 526 61 530 78 c 0
 533 88 536 105 536 115 c 0
 536 121 536 121 540 125 c 0
 547 133 563 136 587 136 c 0
 610 136 626 133 633 125 c 0
 637 121 637 121 637 114 c 0
 637 96 633 73 627 59 c 0
 613 24 583 4 537 -3 c 0
 526 -5 486 -5 473 -3 c 0
 430 3 399 19 384 44 c 0
 371 67 366 92 367 130 c 0
 368 168 374 191 388 217 c 0
 393 226 407 241 417 247 c 0
 434 258 458 266 486 268 c 0
EndSplineSet
EndChar

StartChar: ampersand
Encoding: 38 38 6
Width: 545
Flags: HW
LayerCount: 2
Fore
SplineSet
256 823 m 0
 265 824 296 823 307 821 c 0
 366 813 407 786 430 741 c 0
 447 706 456 660 455 609 c 0
 454 589 451 577 445 561 c 0
 435 531 420 507 391 478 c 0
 368 456 353 445 303 408 c 0
 288 397 275 386 274 386 c 0
 273 384 313 310 343 260 c 0
 370 216 391 182 416 148 c 2
 428 130 l 1
 442 131 l 2
 467 132 487 128 496 120 c 0
 500 116 500 115 500 110 c 0
 500 99 493 80 486 69 c 2
 483 63 l 1
 495 51 l 2
 502 45 510 38 515 35 c 0
 531 23 533 19 526 12 c 0
 519 5 503 1 481 1 c 0
 457 1 444 4 431 12 c 2
 423 18 l 1
 412 14 l 2
 379 3 340 -3 291 -5 c 0
 204 -7 139 17 103 65 c 0
 87 85 74 114 69 144 c 0
 64 168 62 182 62 212 c 0
 62 237 63 241 65 250 c 0
 71 278 83 303 103 330 c 0
 112 341 139 367 155 379 c 0
 162 385 168 391 168 391 c 1
 160 410 l 2
 126 480 103 541 94 585 c 0
 90 604 90 643 95 674 c 0
 97 688 103 709 108 722 c 0
 122 761 143 786 176 803 c 0
 199 814 224 821 256 823 c 0
288 781 m 0
 274 787 271 787 256 779 c 0
 230 766 210 735 201 693 c 0
 193 660 191 614 195 589 c 0
 202 556 219 507 239 461 c 2
 245 447 l 1
 258 458 l 2
 315 504 342 540 350 586 c 0
 355 611 353 660 345 693 c 0
 335 737 316 767 288 781 c 0
216 300 m 0
 211 311 205 321 205 322 c 0
 204 323 202 320 197 314 c 0
 180 290 170 272 165 245 c 0
 163 233 163 192 165 173 c 0
 171 126 183 95 206 68 c 0
 218 54 240 39 258 35 c 0
 266 33 269 33 288 33 c 0
 319 34 337 38 356 48 c 0
 364 52 377 60 377 62 c 2
 377 62 374 67 371 70 c 0
 328 120 264 215 216 300 c 0
EndSplineSet
EndChar

StartChar: parenleft
Encoding: 40 40 7
Width: 211
Flags: HW
LayerCount: 2
Fore
SplineSet
115 849 m 0
 124 850 147 849 155 848 c 0
 170 844 181 837 181 831 c 0
 181 827 176 822 171 819 c 0
 167 818 166 817 163 811 c 0
 157 798 152 778 148 744 c 0
 141 691 137 639 134 567 c 0
 132 523 132 296 134 252 c 0
 137 180 141 128 148 75 c 0
 152 41 157 21 163 8 c 0
 166 2 167 1 171 0 c 0
 176 -3 181 -8 181 -12 c 0
 181 -15 175 -22 168 -25 c 0
 156 -29 147 -30 131 -30 c 0
 95 -30 75 -21 65 -1 c 0
 57 14 51 35 47 73 c 0
 40 126 36 178 33 250 c 0
 31 294 31 525 33 569 c 0
 36 641 40 693 47 746 c 0
 53 794 61 819 73 831 c 0
 81 840 95 846 115 849 c 0
EndSplineSet
EndChar

StartChar: parenright
Encoding: 41 41 8
Width: 211
Flags: HW
LayerCount: 2
Fore
SplineSet
66 849 m 0
 76 850 98 849 109 847 c 0
 121 845 131 840 138 833 c 0
 147 825 156 806 160 779 c 0
 167 745 173 685 176 627 c 0
 180 569 180 538 180 410 c 0
 180 282 180 251 176 193 c 0
 173 135 167 74 160 40 c 0
 156 13 147 -5 138 -13 c 0
 126 -24 108 -30 82 -30 c 0
 65 -30 56 -29 45 -25 c 0
 37 -22 31 -15 31 -12 c 0
 31 -8 36 -3 41 0 c 0
 45 1 46 2 49 8 c 0
 55 21 59 41 63 75 c 0
 70 128 75 180 78 252 c 0
 80 296 80 523 78 567 c 0
 75 639 70 691 63 744 c 0
 59 778 55 798 49 811 c 0
 46 817 45 818 41 819 c 0
 36 822 31 827 31 830 c 0
 31 834 35 840 40 842 c 0
 45 845 57 848 66 849 c 0
EndSplineSet
EndChar

StartChar: asterisk
Encoding: 42 42 9
Width: 485
Flags: HW
LayerCount: 2
Fore
SplineSet
228 818 m 0
 236 819 259 818 267 817 c 0
 278 814 286 811 290 807 c 2
 294 803 l 1
 294 775 l 1
 294 748 l 2
 295 748 298 750 301 751 c 0
 313 758 326 760 346 760 c 0
 373 760 395 751 395 741 c 0
 395 737 387 732 347 708 c 0
 323 695 304 683 304 683 c 2
 303 683 321 671 344 658 c 0
 367 645 387 634 389 633 c 0
 392 631 395 626 395 624 c 0
 395 621 390 615 385 612 c 0
 375 608 363 606 345 606 c 0
 323 606 311 608 299 615 c 2
 294 618 l 1
 294 591 l 2
 294 560 294 559 285 555 c 0
 266 544 221 544 202 555 c 0
 193 559 193 560 193 591 c 2
 193 618 l 2
 192 618 189 617 186 615 c 0
 174 608 162 606 140 606 c 0
 122 606 110 608 100 612 c 0
 95 615 90 621 90 624 c 0
 90 626 93 631 96 633 c 0
 98 634 118 645 141 658 c 0
 164 671 182 683 181 683 c 2
 181 683 162 695 139 708 c 0
 98 732 90 737 90 741 c 0
 90 751 112 760 140 760 c 0
 160 760 172 758 185 751 c 2
 193 746 l 1
 193 774 l 2
 193 802 193 803 195 805 c 0
 200 811 212 816 228 818 c 0
EndSplineSet
EndChar

StartChar: plus
Encoding: 43 43 10
Width: 607
Flags: HW
LayerCount: 2
Fore
SplineSet
289 613 m 0
 297 614 320 613 328 612 c 0
 339 609 346 606 350 602 c 2
 354 598 l 1
 354 463 l 1
 354 327 l 1
 449 327 l 2
 551 326 548 327 563 321 c 0
 570 318 577 311 577 308 c 0
 577 304 570 298 563 295 c 0
 548 289 551 290 449 289 c 2
 354 289 l 1
 354 153 l 1
 354 16 l 1
 350 12 l 2
 343 5 327 1 305 1 c 0
 281 1 265 4 257 12 c 2
 253 16 l 1
 253 153 l 1
 253 289 l 1
 159 289 l 2
 57 290 59 289 45 295 c 0
 37 298 31 304 31 308 c 0
 31 311 37 318 45 321 c 0
 59 327 57 326 159 327 c 2
 253 327 l 1
 253 462 l 1
 253 598 l 1
 255 600 l 2
 260 606 273 611 289 613 c 0
EndSplineSet
EndChar

StartChar: comma
Encoding: 44 44 11
Width: 182
Flags: HW
LayerCount: 2
Fore
SplineSet
77 37 m 0
 85 38 108 37 116 36 c 0
 127 33 134 30 138 26 c 0
 142 22 142 21 142 14 c 0
 142 -5 138 -33 131 -55 c 0
 125 -77 114 -102 109 -109 c 0
 94 -125 28 -125 13 -109 c 0
 9 -105 9 -101 12 -96 c 0
 16 -90 24 -71 29 -58 c 0
 36 -36 41 -5 41 15 c 0
 41 22 43 26 49 29 c 0
 54 32 67 36 77 37 c 0
EndSplineSet
EndChar

StartChar: hyphen
Encoding: 45 45 12
Width: 607
Flags: HW
LayerCount: 2
Fore
SplineSet
66 326 m 0
 69 326 176 327 308 327 c 0
 565 326 547 327 563 321 c 0
 570 318 577 311 577 307 c 0
 577 304 570 298 563 295 c 0
 547 289 564 290 304 290 c 0
 43 290 60 289 45 295 c 0
 37 298 31 304 31 307 c 0
 31 311 35 316 40 318 c 0
 45 321 58 325 66 326 c 0
EndSplineSet
EndChar

StartChar: period
Encoding: 46 46 13
Width: 182
Flags: HW
LayerCount: 2
Fore
SplineSet
75 44 m 0
 105 47 137 41 147 30 c 0
 152 26 152 19 147 15 c 0
 141 8 124 3 104 1 c 0
 75 -2 44 5 35 15 c 0
 30 19 30 26 35 30 c 0
 41 36 57 42 75 44 c 0
EndSplineSet
EndChar

StartChar: slash
Encoding: 47 47 14
Width: 424
Flags: HW
LayerCount: 2
Fore
SplineSet
329 818 m 0
 337 819 360 818 368 817 c 0
 379 814 386 811 390 807 c 0
 392 805 394 802 394 801 c 0
 394 799 133 20 131 15 c 0
 129 11 121 6 112 4 c 0
 90 -2 63 -1 45 6 c 0
 38 9 31 15 31 18 c 0
 31 20 292 799 294 804 c 0
 297 810 312 816 329 818 c 0
EndSplineSet
EndChar

StartChar: zero
Encoding: 48 48 15
Width: 545
Flags: HW
LayerCount: 2
Fore
SplineSet
252 823 m 0
 264 824 289 823 297 822 c 0
 308 819 315 816 319 812 c 0
 324 807 325 804 321 800 c 0
 316 794 303 789 286 787 c 0
 277 786 272 785 268 783 c 0
 241 770 217 740 200 700 c 0
 177 647 164 585 159 498 c 0
 157 471 157 349 159 323 c 0
 164 235 177 172 200 119 c 0
 217 79 243 47 269 36 c 2
 273 34 l 1
 279 37 l 2
 305 49 329 80 346 119 c 0
 369 172 382 236 387 321 c 0
 390 369 389 467 385 511 c 0
 379 579 364 639 341 676 c 0
 327 700 307 717 293 718 c 0
 255 723 240 739 265 749 c 0
 287 759 330 757 365 745 c 0
 398 735 423 713 443 678 c 0
 457 653 471 612 478 573 c 0
 487 524 491 472 490 387 c 0
 489 306 485 257 475 208 c 0
 467 166 451 121 437 94 c 0
 412 49 379 18 338 5 c 0
 314 -3 284 -6 257 -4 c 0
 229 -2 210 3 188 12 c 0
 148 31 119 68 97 119 c 0
 74 176 62 234 57 321 c 0
 55 347 55 473 57 500 c 0
 62 586 74 643 97 700 c 0
 119 751 148 788 188 807 c 0
 194 809 204 813 209 814 c 0
 219 818 239 822 252 823 c 0
EndSplineSet
EndChar

StartChar: one
Encoding: 49 49 16
Width: 378
Flags: HW
LayerCount: 2
Fore
SplineSet
253 818 m 0
 261 819 284 818 292 817 c 0
 303 814 310 811 314 807 c 2
 318 803 l 1
 318 418 l 1
 318 32 l 1
 322 31 l 2
 328 29 333 22 333 19 c 0
 333 12 322 6 306 2 c 0
 294 0 240 0 228 2 c 0
 212 6 202 12 202 19 c 0
 202 22 206 28 213 31 c 2
 217 33 l 1
 217 369 l 1
 217 705 l 2
 216 705 194 684 166 659 c 0
 138 634 115 613 113 611 c 0
 107 608 94 604 80 603 c 0
 49 600 15 611 18 623 c 0
 19 625 50 654 121 717 c 0
 176 767 224 809 226 811 c 0
 230 813 243 817 253 818 c 0
EndSplineSet
EndChar

StartChar: two
Encoding: 50 50 17
Width: 545
Flags: HW
LayerCount: 2
Fore
SplineSet
242 823 m 0
 292 826 338 821 375 807 c 0
 415 791 443 766 462 728 c 0
 473 704 479 683 483 652 c 0
 485 636 485 588 483 574 c 0
 475 512 448 457 394 390 c 0
 379 371 360 349 325 311 c 0
 264 244 242 218 219 185 c 0
 189 140 172 97 165 54 c 0
 165 48 164 42 164 41 c 2
 164 38 l 1
 307 38 l 2
 438 37 452 37 459 36 c 0
 490 28 494 14 468 5 c 0
 454 0 458 1 272 1 c 0
 106 1 96 1 88 2 c 0
 77 5 69 8 65 13 c 2
 61 16 l 1
 61 31 l 1
 65 103 96 169 163 249 c 0
 176 265 193 285 227 322 c 0
 243 339 263 361 271 370 c 0
 342 451 373 507 382 577 c 0
 384 591 384 634 382 650 c 0
 376 691 365 720 347 744 c 0
 339 756 330 763 319 771 c 0
 297 784 279 788 250 785 c 0
 200 779 167 744 163 693 c 0
 163 684 163 683 159 680 c 0
 151 673 135 669 113 669 c 0
 89 669 74 673 66 680 c 0
 62 683 61 684 61 690 c 0
 61 698 65 715 68 724 c 0
 74 743 83 758 96 772 c 0
 126 801 176 819 242 823 c 0
EndSplineSet
EndChar

StartChar: three
Encoding: 51 51 18
Width: 545
Flags: HW
LayerCount: 2
Fore
SplineSet
219 824 m 0
 243 826 296 824 321 820 c 0
 335 818 363 812 374 808 c 0
 424 789 456 757 474 708 c 0
 496 653 496 562 474 507 c 0
 463 476 444 449 421 432 c 0
 413 426 395 416 386 413 c 2
 379 410 l 1
 387 406 l 2
 437 383 470 341 483 281 c 0
 488 258 489 245 489 212 c 0
 489 178 488 165 483 142 c 0
 469 74 429 29 367 9 c 0
 337 0 311 -4 262 -6 c 0
 214 -7 167 0 125 14 c 0
 90 25 69 42 63 61 c 0
 62 64 61 70 61 72 c 0
 61 76 63 77 66 80 c 0
 74 87 89 91 113 91 c 0
 128 91 139 90 150 86 c 0
 157 83 163 77 163 73 c 0
 163 72 164 68 165 65 c 0
 167 58 173 50 182 46 c 0
 189 42 208 37 219 34 c 0
 239 31 281 32 296 37 c 0
 319 43 337 57 351 75 c 0
 370 100 381 129 387 170 c 0
 389 188 389 235 387 254 c 0
 381 294 370 323 351 348 c 0
 337 366 319 380 296 386 c 0
 290 389 283 389 272 390 c 0
 247 392 233 395 226 402 c 0
 221 407 221 411 226 416 c 0
 233 423 246 426 272 428 c 0
 280 429 290 430 293 430 c 0
 310 435 332 448 344 461 c 0
 355 474 368 494 374 512 c 0
 391 557 394 632 380 685 c 0
 376 699 373 708 366 721 c 0
 352 750 332 769 305 779 c 0
 291 785 284 786 255 786 c 0
 225 787 219 786 200 779 c 0
 185 775 177 771 171 765 c 0
 166 760 163 752 163 746 c 0
 163 742 157 736 150 733 c 0
 139 729 128 728 113 728 c 0
 89 728 74 732 66 739 c 0
 63 742 61 744 61 748 c 0
 61 753 65 763 69 769 c 0
 73 775 81 783 89 788 c 0
 115 805 168 820 219 824 c 0
EndSplineSet
EndChar

StartChar: four
Encoding: 52 52 19
Width: 500
Flags: HW
LayerCount: 2
Fore
SplineSet
178 818 m 0
 187 819 208 818 218 816 c 0
 232 814 244 807 244 801 c 0
 244 800 225 740 201 668 c 0
 177 596 158 533 156 529 c 2
 154 522 l 1
 193 522 l 1
 230 522 l 1
 230 560 l 1
 230 598 l 1
 234 602 l 2
 242 609 258 613 282 613 c 0
 305 613 320 609 328 602 c 2
 332 598 l 1
 332 560 l 1
 332 522 l 1
 384 522 l 2
 440 521 443 521 457 516 c 0
 464 513 470 507 470 504 c 0
 470 500 464 493 457 490 c 0
 443 485 440 485 384 484 c 2
 332 484 l 1
 332 250 l 1
 332 16 l 1
 328 12 l 2
 321 5 305 1 283 1 c 0
 259 1 242 4 234 12 c 2
 230 16 l 1
 230 250 l 1
 230 484 l 1
 155 484 l 2
 87 485 79 485 72 486 c 0
 58 490 46 497 46 503 c 0
 46 507 143 803 145 806 c 0
 149 811 162 816 178 818 c 0
EndSplineSet
EndChar

StartChar: five
Encoding: 53 53 20
Width: 545
Flags: HW
LayerCount: 2
Fore
SplineSet
97 818 m 0
 100 818 180 819 278 819 c 0
 437 818 452 818 459 817 c 0
 494 808 494 792 459 783 c 0
 452 782 438 782 307 781 c 2
 163 781 l 1
 163 694 l 2
 163 647 163 608 164 608 c 2
 174 610 l 2
 202 616 228 618 266 618 c 0
 299 618 310 617 333 612 c 0
 368 603 393 589 418 565 c 0
 432 550 442 537 451 519 c 0
 480 464 490 403 490 307 c 0
 490 211 480 150 451 95 c 0
 442 77 432 64 418 50 c 0
 393 25 368 11 333 2 c 0
 310 -3 299 -4 266 -4 c 0
 250 -4 230 -4 223 -3 c 0
 134 5 81 33 66 79 c 0
 64 85 62 91 61 96 c 2
 61 104 l 1
 66 109 l 2
 74 116 89 120 113 120 c 0
 135 120 151 116 159 109 c 0
 162 106 163 104 163 98 c 0
 165 82 173 65 183 56 c 0
 200 41 223 34 257 33 c 0
 274 33 276 33 282 35 c 0
 304 43 323 59 339 82 c 0
 347 93 362 122 367 138 c 0
 382 183 389 235 389 307 c 0
 389 379 382 431 367 477 c 0
 362 492 347 521 339 532 c 0
 323 555 304 572 282 580 c 0
 276 582 274 582 257 582 c 0
 223 581 200 573 183 558 c 0
 173 549 165 532 163 517 c 0
 163 510 162 509 159 506 c 0
 151 499 135 495 113 495 c 0
 89 495 74 499 66 506 c 2
 61 510 l 1
 61 656 l 1
 61 803 l 1
 63 805 l 2
 68 811 81 816 97 818 c 0
EndSplineSet
EndChar

StartChar: six
Encoding: 54 54 21
Width: 545
Flags: HW
LayerCount: 2
Fore
SplineSet
223 823 m 0
 233 824 278 823 294 822 c 0
 357 816 404 800 432 774 c 0
 448 758 460 734 460 716 c 0
 460 711 460 710 456 707 c 0
 448 700 433 695 410 695 c 0
 386 695 370 700 362 707 c 0
 359 710 358 711 358 715 c 0
 358 732 348 753 333 765 c 0
 318 777 294 784 263 786 c 2
 251 786 l 1
 246 782 l 2
 223 766 204 726 187 657 c 0
 183 640 175 600 175 599 c 1
 176 599 180 601 185 603 c 0
 198 608 219 614 236 616 c 0
 256 619 290 619 310 616 c 0
 345 611 375 599 400 581 c 0
 410 573 429 554 436 543 c 0
 456 514 473 471 481 426 c 0
 493 361 493 253 481 188 c 0
 473 143 456 101 436 72 c 0
 429 61 410 42 400 34 c 0
 375 16 345 3 310 -2 c 0
 290 -5 256 -5 236 -2 c 0
 208 2 183 11 163 23 c 0
 148 32 140 38 128 50 c 0
 114 64 104 77 95 95 c 0
 70 142 59 190 56 263 c 0
 55 289 55 399 57 437 c 0
 62 549 76 638 100 710 c 0
 127 787 158 816 223 823 c 0
286 578 m 0
 275 583 271 583 261 579 c 0
 241 570 222 555 207 532 c 0
 199 521 184 492 179 477 c 0
 164 431 157 379 157 307 c 0
 157 218 166 159 191 109 c 0
 201 87 210 75 223 62 c 0
 239 46 261 34 273 34 c 0
 284 34 307 46 323 62 c 0
 336 75 344 87 354 109 c 0
 379 159 389 218 389 307 c 0
 389 379 382 431 367 477 c 0
 362 492 347 521 339 532 c 0
 326 551 304 571 286 578 c 0
EndSplineSet
EndChar

StartChar: seven
Encoding: 55 55 22
Width: 485
Flags: HW
LayerCount: 2
Fore
SplineSet
66 818 m 0
 69 818 150 819 247 819 c 0
 437 818 425 819 441 813 c 0
 447 810 455 804 455 801 c 0
 455 800 403 623 341 408 c 0
 237 46 228 15 225 12 c 0
 218 5 201 1 178 1 c 0
 152 1 133 6 128 15 c 0
 127 18 133 38 237 397 c 0
 297 605 346 777 347 778 c 2
 347 781 l 1
 206 781 l 2
 52 782 60 781 45 787 c 0
 37 790 31 797 31 800 c 0
 31 804 35 809 40 811 c 0
 45 814 58 817 66 818 c 0
EndSplineSet
EndChar

StartChar: eight
Encoding: 56 56 23
Width: 545
Flags: HW
LayerCount: 2
Fore
SplineSet
248 823 m 0
 292 826 339 820 375 806 c 0
 399 797 415 786 432 770 c 0
 459 742 475 705 482 657 c 0
 484 639 484 588 482 570 c 0
 472 499 440 452 388 426 c 1
 378 422 l 1
 387 418 l 2
 421 403 448 377 464 344 c 0
 483 306 491 264 490 207 c 0
 489 172 485 147 477 122 c 0
 451 43 391 2 292 -4 c 0
 242 -7 185 4 148 23 c 0
 97 52 66 100 57 171 c 0
 55 188 54 227 56 246 c 0
 59 287 67 314 82 344 c 0
 98 377 125 403 159 418 c 2
 168 422 l 1
 158 426 l 2
 134 437 109 457 96 479 c 0
 79 504 68 533 63 570 c 0
 61 588 61 639 63 657 c 0
 70 705 87 742 114 770 c 0
 131 786 147 797 171 806 c 0
 193 815 221 821 248 823 c 0
289 784 m 0
 263 790 232 781 208 757 c 0
 185 733 171 700 165 655 c 0
 163 637 163 590 165 572 c 0
 171 527 185 494 208 470 c 0
 232 446 263 436 289 442 c 0
 327 451 357 482 371 527 c 0
 380 554 382 575 382 614 c 0
 382 645 381 657 376 680 c 0
 364 735 332 773 289 784 c 0
291 400 m 0
 268 405 246 400 223 386 c 0
 211 378 203 370 195 358 c 0
 168 323 155 272 157 207 c 0
 159 148 171 106 198 73 c 0
 216 49 246 33 273 33 c 0
 299 33 330 49 348 73 c 0
 375 106 387 148 389 207 c 0
 391 272 378 323 351 358 c 0
 336 380 316 394 291 400 c 0
EndSplineSet
EndChar

StartChar: nine
Encoding: 57 57 24
Width: 545
Flags: HW
LayerCount: 2
Fore
SplineSet
252 823 m 0
 265 824 295 823 310 821 c 0
 338 817 363 809 383 797 c 0
 398 788 406 781 419 769 c 0
 432 755 442 742 451 724 c 0
 476 677 486 629 489 557 c 0
 490 530 490 420 488 383 c 0
 484 284 473 209 454 140 c 0
 427 44 398 9 336 -2 c 0
 326 -4 321 -4 296 -4 c 0
 280 -4 261 -4 254 -3 c 0
 175 4 124 25 100 61 c 0
 91 74 86 91 86 103 c 0
 86 108 86 110 90 113 c 0
 98 120 113 124 137 124 c 0
 160 124 175 120 183 113 c 0
 186 110 187 108 187 104 c 0
 187 87 198 66 213 54 c 0
 228 42 252 35 283 33 c 2
 295 33 l 1
 300 37 l 2
 323 53 341 93 358 162 c 0
 362 179 371 219 371 220 c 1
 370 220 365 218 360 216 c 0
 347 211 327 205 310 203 c 0
 290 200 256 200 236 203 c 0
 201 208 170 221 145 239 c 0
 135 247 117 265 110 276 c 0
 90 305 73 348 65 393 c 0
 53 458 53 566 65 631 c 0
 73 676 90 719 110 748 c 0
 117 759 135 777 145 785 c 0
 174 807 209 819 252 823 c 0
286 782 m 0
 275 787 271 787 261 783 c 0
 241 774 222 760 207 737 c 0
 199 726 184 697 179 682 c 0
 164 636 157 584 157 512 c 0
 157 423 166 363 191 313 c 0
 201 291 210 280 223 267 c 0
 239 251 261 239 273 239 c 0
 284 239 307 251 323 267 c 0
 336 280 344 291 354 313 c 0
 379 363 389 423 389 512 c 0
 389 584 382 636 367 682 c 0
 362 697 347 726 339 737 c 0
 326 756 304 775 286 782 c 0
EndSplineSet
EndChar

StartChar: colon
Encoding: 58 58 25
Width: 182
Flags: HW
LayerCount: 2
Fore
SplineSet
75 613 m 0
 105 616 137 610 147 599 c 0
 152 595 152 589 147 585 c 0
 138 575 107 567 78 570 c 0
 58 572 41 578 35 585 c 0
 30 589 30 595 35 599 c 0
 41 605 57 611 75 613 c 0
75 44 m 0
 105 47 137 41 147 30 c 0
 152 26 152 19 147 15 c 0
 141 8 124 3 104 1 c 0
 75 -2 44 5 35 15 c 0
 30 19 30 26 35 30 c 0
 41 36 57 42 75 44 c 0
EndSplineSet
EndChar

StartChar: semicolon
Encoding: 59 59 26
Width: 182
Flags: HW
LayerCount: 2
Fore
SplineSet
75 617 m 0
 91 619 117 617 132 612 c 0
 144 608 153 600 152 594 c 0
 147 572 77 566 43 582 c 0
 33 587 29 593 32 600 c 0
 36 608 52 614 75 617 c 0
77 37 m 0
 85 38 108 37 116 36 c 0
 127 33 134 30 138 26 c 0
 142 22 142 21 142 14 c 0
 142 -5 138 -33 131 -55 c 0
 125 -77 114 -102 109 -109 c 0
 94 -125 28 -125 13 -109 c 0
 9 -105 9 -101 12 -96 c 0
 16 -90 24 -71 29 -58 c 0
 36 -36 41 -5 41 15 c 0
 41 22 43 26 49 29 c 0
 54 32 67 36 77 37 c 0
EndSplineSet
EndChar

StartChar: less
Encoding: 60 60 27
Width: 607
Flags: HW
LayerCount: 2
Fore
SplineSet
511 613 m 0
 519 614 542 613 550 612 c 0
 561 609 568 606 572 602 c 0
 577 598 577 594 574 590 c 0
 572 589 474 524 356 447 c 0
 237 370 140 307 140 307 c 1
 140 307 237 244 356 167 c 0
 474 90 572 26 574 25 c 0
 577 21 577 16 572 12 c 0
 565 5 549 1 527 1 c 0
 511 1 499 2 489 6 c 0
 483 8 36 298 33 302 c 0
 30 305 30 309 33 312 c 0
 35 314 430 572 479 603 c 0
 488 608 498 611 511 613 c 0
EndSplineSet
EndChar

StartChar: equal
Encoding: 61 61 28
Width: 607
Flags: HW
LayerCount: 2
Fore
SplineSet
66 428 m 0
 69 428 176 429 308 429 c 0
 565 428 547 429 563 423 c 0
 570 420 577 414 577 410 c 0
 577 407 570 400 563 397 c 0
 547 391 564 392 304 392 c 0
 43 392 60 391 45 397 c 0
 37 400 31 407 31 410 c 0
 31 414 35 419 40 421 c 0
 45 424 58 427 66 428 c 0
66 223 m 0
 69 223 176 224 308 224 c 0
 565 223 547 224 563 218 c 0
 570 215 577 209 577 205 c 0
 577 202 570 196 563 193 c 0
 547 187 564 187 304 187 c 0
 43 187 60 187 45 193 c 0
 37 196 31 202 31 205 c 0
 31 209 35 214 40 216 c 0
 45 219 58 222 66 223 c 0
EndSplineSet
EndChar

StartChar: greater
Encoding: 62 62 29
Width: 607
Flags: HW
LayerCount: 2
Fore
SplineSet
66 613 m 0
 81 615 106 613 118 608 c 0
 124 606 571 316 574 312 c 0
 575 311 577 308 577 307 c 0
 577 306 575 303 574 302 c 0
 571 298 124 8 118 6 c 0
 108 2 96 1 81 1 c 0
 58 1 42 5 35 12 c 0
 30 16 30 21 33 25 c 0
 35 26 133 90 251 167 c 0
 370 244 467 307 467 307 c 1
 467 307 370 370 251 447 c 0
 133 524 35 589 33 590 c 0
 30 594 30 597 34 601 c 0
 38 606 51 611 66 613 c 0
EndSplineSet
EndChar

StartChar: question
Encoding: 63 63 30
Width: 485
Flags: HW
LayerCount: 2
Fore
SplineSet
218 823 m 0
 262 826 309 820 344 805 c 0
 406 779 442 726 453 642 c 0
 455 625 455 564 453 548 c 0
 446 488 428 446 396 414 c 0
 371 389 342 374 303 366 c 2
 295 364 l 1
 294 224 l 1
 294 84 l 1
 291 81 l 2
 283 73 268 70 244 70 c 0
 218 70 203 73 196 82 c 2
 193 85 l 1
 193 233 l 1
 193 383 l 1
 197 386 l 2
 204 393 219 397 244 398 c 0
 257 399 259 399 266 402 c 0
 304 418 334 459 345 513 c 0
 352 545 355 585 352 624 c 0
 346 708 315 763 263 782 c 0
 255 785 254 785 243 785 c 0
 232 785 230 785 222 782 c 0
 192 771 172 751 156 719 c 0
 142 689 132 643 132 599 c 2
 132 590 l 1
 128 586 l 2
 121 578 105 574 82 574 c 0
 58 574 42 578 35 586 c 2
 31 590 l 1
 31 609 l 2
 34 680 51 731 85 767 c 0
 115 799 162 818 218 823 c 0
227 37 m 0
 242 39 268 37 281 32 c 0
 288 29 294 22 294 18 c 0
 294 15 288 9 281 6 c 0
 259 -1 227 -1 205 6 c 0
 199 9 191 15 191 18 c 0
 191 26 205 34 227 37 c 0
EndSplineSet
EndChar

StartChar: at
Encoding: 64 64 31
Width: 728
Flags: HW
LayerCount: 2
Fore
SplineSet
336 728 m 0
 390 732 449 724 495 706 c 0
 570 676 619 622 648 538 c 0
 663 493 671 445 673 382 c 0
 674 335 669 315 655 286 c 0
 637 249 608 226 569 219 c 0
 556 217 526 217 514 220 c 2
 505 222 l 1
 504 214 l 2
 501 196 491 170 481 156 c 0
 458 123 417 104 365 104 c 0
 305 104 268 130 245 186 c 0
 233 217 225 250 222 294 c 0
 220 316 220 412 222 431 c 0
 225 465 230 490 237 513 c 0
 259 589 297 621 366 621 c 0
 394 621 416 616 438 606 c 0
 473 589 495 559 503 514 c 0
 508 492 508 483 508 381 c 2
 508 284 l 1
 520 283 l 2
 526 283 536 283 541 282 c 0
 548 280 549 280 550 281 c 0
 553 286 562 306 564 314 c 0
 570 333 571 340 570 375 c 0
 570 479 549 558 504 617 c 0
 470 661 415 691 365 691 c 0
 314 691 258 661 224 617 c 0
 187 568 167 509 159 425 c 0
 157 401 157 329 159 306 c 0
 165 237 176 190 200 145 c 0
 227 95 263 59 310 41 c 0
 326 35 333 34 358 33 c 0
 388 32 403 28 411 20 c 0
 416 15 416 12 411 7 c 0
 404 0 389 -4 362 -5 c 0
 312 -6 260 5 218 24 c 0
 166 49 127 87 100 139 c 0
 75 186 63 234 57 304 c 0
 55 327 55 403 57 427 c 0
 61 471 69 505 80 538 c 0
 109 622 158 676 233 706 c 0
 263 717 300 725 336 728 c 0
375 588 m 0
 372 589 369 590 368 590 c 0
 365 590 354 581 349 575 c 0
 342 568 335 557 330 546 c 0
 320 524 309 487 306 455 c 0
 300 409 300 328 305 281 c 0
 312 211 332 157 360 138 c 0
 366 135 367 135 371 136 c 0
 377 138 389 147 395 154 c 0
 406 166 416 185 421 204 c 0
 426 230 426 226 427 352 c 0
 427 470 427 487 423 507 c 0
 417 547 399 576 375 588 c 0
EndSplineSet
EndChar

StartChar: A
Encoding: 65 65 32
Width: 576
Flags: HW
LayerCount: 2
Fore
SplineSet
238 818 m 0
 241 818 266 819 293 819 c 0
 343 818 347 818 359 813 c 0
 365 811 373 807 374 803 c 0
 375 800 530 22 530 18 c 0
 530 15 525 10 518 7 c 0
 491 -5 436 1 430 16 c 0
 430 17 414 90 397 178 c 0
 380 265 366 338 365 339 c 2
 365 341 l 1
 288 341 l 1
 212 341 l 1
 212 339 l 2
 211 338 196 265 179 178 c 0
 162 90 146 17 146 16 c 0
 144 10 135 5 120 2 c 0
 108 0 85 0 73 2 c 0
 58 6 46 12 46 18 c 0
 46 20 200 791 203 802 c 0
 204 809 219 815 238 818 c 0
323 549 m 2
 305 643 289 720 289 721 c 0
 289 722 272 646 254 551 c 2
 219 379 l 1
 289 379 l 1
 357 379 l 1
 323 549 l 2
EndSplineSet
EndChar

StartChar: B
Encoding: 66 66 33
Width: 545
Flags: HW
LayerCount: 2
Fore
SplineSet
81 818 m 0
 90 819 120 819 146 818 c 0
 218 815 272 806 321 791 c 0
 395 765 442 729 468 678 c 0
 479 655 484 635 485 611 c 0
 487 557 469 505 436 469 c 0
 413 443 382 425 340 410 c 0
 339 410 343 408 348 407 c 0
 385 394 412 377 436 354 c 0
 449 340 459 326 468 310 c 0
 482 282 488 256 490 223 c 0
 491 186 483 155 463 124 c 0
 437 85 399 58 342 36 c 0
 282 12 205 1 115 1 c 0
 79 0 70 1 58 7 c 0
 43 14 42 24 57 31 c 2
 61 33 l 1
 61 214 l 1
 61 395 l 1
 57 397 l 2
 50 400 46 406 46 410 c 0
 46 413 50 418 57 421 c 2
 61 423 l 1
 61 605 l 1
 61 786 l 1
 57 788 l 2
 46 793 43 801 49 807 c 0
 55 812 66 816 81 818 c 0
179 777 m 0
 171 778 165 779 164 779 c 0
 163 779 163 743 163 604 c 2
 163 428 l 1
 189 428 l 2
 229 428 251 431 274 439 c 0
 339 461 376 511 383 586 c 0
 386 616 381 645 369 671 c 0
 351 708 320 735 276 753 c 0
 246 766 217 773 179 777 c 0
242 388 m 0
 233 389 222 389 197 390 c 2
 163 390 l 1
 163 215 l 1
 163 40 l 1
 171 40 l 1
 206 44 242 51 270 62 c 0
 284 67 307 79 318 86 c 0
 347 105 371 135 381 167 c 0
 387 183 388 194 388 216 c 0
 388 238 387 248 382 266 c 0
 366 334 316 376 242 388 c 0
EndSplineSet
EndChar

StartChar: C
Encoding: 67 67 34
Width: 545
Flags: HW
LayerCount: 2
Fore
SplineSet
256 823 m 0
 265 824 311 823 327 822 c 0
 416 813 474 782 496 732 c 0
 501 720 504 705 505 694 c 2
 505 684 l 1
 501 680 l 2
 493 673 478 669 455 669 c 0
 431 669 416 673 408 680 c 0
 404 683 403 684 403 689 c 0
 403 691 402 698 401 703 c 0
 397 729 384 751 366 764 c 0
 346 778 322 784 290 786 c 2
 275 786 l 1
 268 783 l 2
 235 767 208 729 189 673 c 0
 172 623 164 573 159 498 c 0
 157 471 157 349 159 323 c 0
 164 234 177 172 200 118 c 0
 217 79 241 49 268 36 c 2
 275 33 l 1
 290 33 l 2
 322 35 346 41 366 55 c 0
 384 68 397 90 401 116 c 0
 402 121 403 128 403 130 c 0
 403 135 404 136 408 139 c 0
 416 146 431 151 455 151 c 0
 478 151 493 146 501 139 c 2
 505 135 l 1
 505 125 l 2
 504 114 501 99 496 87 c 0
 470 29 395 -4 281 -4 c 0
 250 -4 238 -3 218 2 c 0
 164 16 123 56 97 119 c 0
 74 176 62 234 57 321 c 0
 55 347 55 473 57 500 c 0
 62 586 74 643 97 700 c 0
 110 733 128 759 150 779 c 0
 178 806 210 819 256 823 c 0
EndSplineSet
EndChar

StartChar: D
Encoding: 68 68 35
Width: 531
Flags: HW
LayerCount: 2
Fore
SplineSet
81 818 m 0
 90 819 129 818 148 817 c 0
 325 799 435 712 474 553 c 0
 496 468 496 351 474 266 c 0
 439 127 351 42 210 12 c 0
 174 4 140 1 105 1 c 0
 78 0 69 2 58 7 c 0
 43 14 42 24 57 31 c 2
 61 33 l 1
 61 410 l 1
 61 786 l 1
 57 788 l 2
 46 793 43 801 49 807 c 0
 55 812 66 816 81 818 c 0
177 770 m 0
 172 772 167 773 166 773 c 2
 163 774 l 1
 163 410 l 1
 163 45 l 1
 166 46 l 1
 219 58 269 89 303 127 c 0
 337 167 359 211 373 268 c 0
 395 353 395 466 373 551 c 0
 359 608 337 652 303 692 c 0
 272 728 225 757 177 770 c 0
EndSplineSet
EndChar

StartChar: E
Encoding: 69 69 36
Width: 531
Flags: HW
LayerCount: 2
Fore
SplineSet
81 818 m 0
 84 818 167 819 270 819 c 0
 440 818 453 818 460 817 c 0
 475 813 485 807 485 801 c 0
 485 794 475 787 460 783 c 0
 453 782 441 782 307 781 c 2
 163 781 l 1
 163 605 l 1
 163 429 l 1
 292 429 l 2
 433 428 427 429 441 423 c 0
 459 416 459 404 441 397 c 0
 427 391 433 392 292 391 c 2
 163 391 l 1
 163 214 l 1
 163 38 l 1
 307 38 l 2
 441 37 453 37 460 36 c 0
 475 32 485 25 485 19 c 0
 485 12 475 6 459 2 c 0
 451 1 440 1 266 1 c 0
 91 1 81 1 73 2 c 0
 57 6 46 12 46 19 c 0
 46 22 50 28 57 31 c 2
 61 33 l 1
 61 214 l 1
 61 396 l 1
 57 398 l 2
 50 401 46 407 46 411 c 0
 46 414 50 419 57 422 c 2
 61 424 l 1
 61 605 l 1
 61 786 l 1
 57 788 l 2
 46 793 43 801 49 807 c 0
 55 812 66 816 81 818 c 0
EndSplineSet
EndChar

StartChar: F
Encoding: 70 70 37
Width: 531
Flags: HW
LayerCount: 2
Fore
SplineSet
81 818 m 0
 84 818 167 819 270 819 c 0
 440 818 453 818 460 817 c 0
 475 813 485 807 485 801 c 0
 485 794 475 787 460 783 c 0
 453 782 441 782 307 781 c 2
 163 781 l 1
 163 605 l 1
 163 429 l 1
 292 429 l 2
 433 428 427 429 441 423 c 0
 459 416 459 404 441 397 c 0
 427 391 433 392 292 391 c 2
 163 391 l 1
 163 204 l 1
 163 16 l 1
 159 12 l 2
 152 5 136 1 114 1 c 0
 90 1 74 4 66 12 c 2
 61 16 l 1
 61 206 l 1
 61 396 l 1
 57 398 l 2
 50 401 46 407 46 411 c 0
 46 414 50 419 57 422 c 2
 61 424 l 1
 61 605 l 1
 61 786 l 1
 57 788 l 2
 46 793 43 801 49 807 c 0
 55 812 66 816 81 818 c 0
EndSplineSet
EndChar

StartChar: G
Encoding: 71 71 38
Width: 545
Flags: HW
LayerCount: 2
Fore
SplineSet
256 823 m 0
 265 824 311 823 327 822 c 0
 416 813 474 782 496 732 c 0
 501 720 504 705 505 694 c 2
 505 684 l 1
 501 680 l 2
 493 673 478 669 455 669 c 0
 431 669 416 673 408 680 c 0
 404 683 403 684 403 689 c 0
 403 691 402 698 401 703 c 0
 397 729 384 751 366 764 c 0
 346 778 322 784 290 786 c 2
 275 786 l 1
 268 783 l 2
 235 767 208 729 189 673 c 0
 172 623 164 573 159 498 c 0
 157 471 157 349 159 323 c 0
 164 234 177 172 200 118 c 0
 217 79 241 49 268 36 c 2
 275 33 l 1
 290 33 l 2
 322 35 346 41 366 55 c 0
 384 68 397 90 401 116 c 0
 403 124 403 143 403 258 c 2
 403 391 l 1
 355 391 l 2
 314 392 305 392 299 393 c 0
 284 397 273 404 273 411 c 0
 273 417 284 423 300 427 c 0
 308 428 315 429 390 429 c 0
 462 429 471 428 478 427 c 0
 489 424 497 421 501 417 c 2
 505 413 l 1
 505 264 l 1
 504 116 l 1
 502 105 l 2
 500 100 498 92 496 87 c 0
 470 29 395 -4 281 -4 c 0
 250 -4 238 -3 218 2 c 0
 164 16 123 56 97 119 c 0
 74 176 62 234 57 321 c 0
 55 347 55 473 57 500 c 0
 62 586 74 643 97 700 c 0
 110 733 128 759 150 779 c 0
 178 806 210 819 256 823 c 0
EndSplineSet
EndChar

StartChar: H
Encoding: 72 72 39
Width: 545
Flags: HW
LayerCount: 2
Fore
SplineSet
97 818 m 0
 105 819 128 818 136 817 c 0
 147 814 155 811 159 807 c 2
 163 803 l 1
 163 626 l 1
 163 447 l 1
 273 447 l 1
 384 447 l 1
 384 626 l 1
 384 803 l 1
 388 807 l 2
 396 815 412 818 436 818 c 0
 458 818 474 814 481 807 c 2
 485 803 l 1
 485 623 l 1
 485 441 l 1
 488 440 l 2
 490 439 494 437 496 435 c 0
 501 430 501 427 496 422 c 0
 494 420 490 418 488 417 c 2
 485 416 l 1
 485 216 l 1
 485 16 l 1
 481 12 l 2
 474 5 458 1 436 1 c 0
 412 1 396 4 388 12 c 2
 384 16 l 1
 384 213 l 1
 384 410 l 1
 273 410 l 1
 163 410 l 1
 163 213 l 1
 163 16 l 1
 159 12 l 2
 152 5 136 1 114 1 c 0
 90 1 74 4 66 12 c 2
 61 16 l 1
 61 215 l 1
 61 415 l 1
 57 417 l 2
 50 420 46 425 46 429 c 0
 46 432 50 437 57 440 c 2
 61 442 l 1
 61 623 l 1
 61 803 l 1
 63 805 l 2
 68 811 81 816 97 818 c 0
EndSplineSet
EndChar

StartChar: I
Encoding: 73 73 40
Width: 333
Flags: HW
LayerCount: 2
Fore
SplineSet
136 818 m 0
 147 819 198 819 207 817 c 0
 222 813 232 807 232 800 c 0
 232 797 227 790 221 788 c 2
 218 787 l 1
 218 410 l 1
 218 32 l 1
 221 31 l 2
 227 29 232 22 232 19 c 0
 232 12 222 6 206 2 c 0
 194 0 140 0 128 2 c 0
 112 6 101 12 101 19 c 0
 101 22 106 28 113 31 c 2
 117 33 l 1
 117 410 l 1
 117 786 l 1
 113 788 l 2
 102 793 98 801 104 807 c 0
 110 812 121 816 136 818 c 0
EndSplineSet
EndChar

StartChar: J
Encoding: 74 74 41
Width: 454
Flags: HW
LayerCount: 2
Fore
SplineSet
312 818 m 0
 323 819 374 819 383 817 c 0
 398 813 409 807 409 800 c 0
 409 797 403 790 397 788 c 2
 394 787 l 1
 394 489 l 2
 394 288 394 186 393 176 c 0
 388 110 367 63 330 35 c 0
 321 27 301 17 290 13 c 0
 266 4 242 1 213 1 c 0
 183 1 159 4 135 13 c 0
 124 17 104 27 95 35 c 0
 53 66 31 125 31 202 c 2
 31 212 l 1
 35 216 l 2
 42 224 58 227 82 227 c 0
 105 227 121 224 128 216 c 2
 132 212 l 1
 132 203 l 2
 132 180 135 149 140 129 c 0
 147 97 164 68 182 53 c 0
 191 46 207 39 212 39 c 0
 218 38 234 46 243 53 c 0
 271 77 288 120 292 178 c 0
 293 187 293 299 293 489 c 2
 293 786 l 1
 289 788 l 2
 278 793 275 801 281 807 c 0
 287 812 297 816 312 818 c 0
EndSplineSet
EndChar

StartChar: K
Encoding: 75 75 42
Width: 531
Flags: HW
LayerCount: 2
Fore
SplineSet
97 818 m 0
 105 819 128 818 136 817 c 0
 146 814 155 811 159 807 c 2
 163 804 l 1
 163 670 l 1
 164 536 l 1
 276 672 l 2
 381 800 389 809 394 811 c 0
 420 823 468 820 482 807 c 0
 488 800 496 810 381 671 c 0
 282 551 277 545 278 542 c 0
 279 541 326 423 382 280 c 0
 439 138 485 19 485 18 c 0
 485 15 480 10 473 7 c 0
 450 -3 403 -1 389 11 c 0
 386 13 375 41 297 237 c 0
 248 360 208 460 208 461 c 2
 208 461 197 448 185 434 c 2
 163 408 l 1
 163 212 l 1
 163 16 l 1
 159 12 l 2
 152 5 136 1 114 1 c 0
 90 1 74 4 66 12 c 2
 61 16 l 1
 61 410 l 1
 61 803 l 1
 63 805 l 2
 68 811 81 816 97 818 c 0
EndSplineSet
EndChar

StartChar: L
Encoding: 76 76 43
Width: 516
Flags: HW
LayerCount: 2
Fore
SplineSet
97 818 m 0
 105 819 128 818 136 817 c 0
 147 814 155 811 159 807 c 2
 163 803 l 1
 163 421 l 1
 163 38 l 1
 307 38 l 2
 465 37 456 38 472 32 c 0
 479 29 485 22 485 18 c 0
 485 15 479 9 472 6 c 0
 456 0 468 1 266 1 c 0
 92 1 81 1 73 2 c 0
 57 6 46 12 46 19 c 0
 46 22 50 28 57 31 c 2
 61 33 l 1
 61 418 l 1
 61 803 l 1
 63 805 l 2
 68 811 81 816 97 818 c 0
EndSplineSet
EndChar

StartChar: M
Encoding: 77 77 44
Width: 788
Flags: HW
LayerCount: 2
Fore
SplineSet
97 818 m 0
 105 819 128 818 136 817 c 0
 147 814 155 811 159 807 c 0
 162 804 174 774 279 486 c 2
 394 169 l 1
 511 486 l 2
 623 790 628 805 632 808 c 0
 639 815 656 818 679 818 c 0
 701 818 717 814 724 807 c 2
 728 803 l 1
 728 410 l 1
 728 16 l 1
 724 12 l 2
 717 5 701 1 679 1 c 0
 656 1 640 4 631 11 c 2
 628 15 l 1
 627 268 l 1
 627 521 l 1
 536 273 l 2
 449 39 443 26 440 23 c 0
 432 16 415 12 395 12 c 0
 373 12 357 16 349 23 c 0
 346 26 341 39 254 273 c 2
 164 521 l 1
 163 268 l 1
 163 15 l 1
 159 12 l 2
 151 5 136 1 114 1 c 0
 90 1 74 4 66 12 c 2
 61 16 l 1
 61 410 l 1
 61 803 l 1
 63 805 l 2
 68 811 81 816 97 818 c 0
EndSplineSet
EndChar

StartChar: N
Encoding: 78 78 45
Width: 545
Flags: HW
LayerCount: 2
Fore
SplineSet
97 818 m 0
 105 819 128 818 136 817 c 0
 146 814 155 811 159 808 c 0
 161 805 177 766 272 536 c 2
 384 267 l 1
 384 536 l 1
 385 804 l 1
 388 808 l 2
 397 815 413 818 436 818 c 0
 458 818 474 814 481 807 c 2
 485 803 l 1
 485 410 l 1
 485 16 l 1
 481 12 l 2
 474 5 458 1 436 1 c 0
 413 1 396 4 389 11 c 0
 385 14 375 39 274 284 c 2
 164 552 l 1
 163 284 l 1
 163 15 l 1
 159 12 l 2
 151 5 136 1 114 1 c 0
 90 1 74 4 66 12 c 2
 61 16 l 1
 61 410 l 1
 61 803 l 1
 63 805 l 2
 68 811 81 816 97 818 c 0
EndSplineSet
EndChar

StartChar: O
Encoding: 79 79 46
Width: 697
Flags: HW
LayerCount: 2
Fore
SplineSet
323 823 m 0
 382 827 442 818 490 793 c 0
 545 765 584 723 612 662 c 0
 636 611 649 555 654 478 c 0
 656 454 656 365 654 341 c 0
 649 264 636 209 612 158 c 0
 584 97 545 55 490 27 c 0
 429 -4 350 -13 276 2 c 0
 225 13 180 37 145 70 c 0
 92 120 57 202 46 305 c 0
 42 340 42 358 42 410 c 0
 42 462 42 479 46 514 c 0
 55 593 77 660 112 710 c 0
 157 777 232 816 323 823 c 0
369 784 m 0
 344 789 319 785 289 771 c 0
 250 752 222 723 197 680 c 0
 167 626 150 565 144 476 c 0
 142 453 142 366 144 343 c 0
 150 254 167 193 197 139 c 0
 222 95 250 67 290 48 c 0
 333 28 365 28 408 48 c 0
 448 67 476 95 501 139 c 0
 531 193 547 254 553 343 c 0
 555 366 555 453 553 476 c 0
 547 565 531 626 501 680 c 0
 476 724 448 752 408 771 c 0
 393 778 383 781 369 784 c 0
EndSplineSet
EndChar

StartChar: P
Encoding: 80 80 47
Width: 531
Flags: HW
LayerCount: 2
Fore
SplineSet
81 818 m 0
 94 820 158 818 196 815 c 0
 287 807 367 781 416 745 c 0
 454 716 478 679 487 636 c 0
 490 621 490 588 487 573 c 0
 478 530 454 493 416 464 c 0
 363 425 275 399 174 392 c 1
 163 392 l 1
 163 204 l 1
 163 16 l 1
 159 12 l 2
 152 5 136 1 114 1 c 0
 90 1 74 4 66 12 c 2
 61 16 l 1
 61 206 l 1
 61 395 l 1
 57 397 l 2
 50 400 46 406 46 410 c 0
 46 413 50 418 57 421 c 2
 61 423 l 1
 61 605 l 1
 61 786 l 1
 57 788 l 2
 46 793 43 801 49 807 c 0
 55 812 66 816 81 818 c 0
194 776 m 0
 186 777 175 778 171 779 c 2
 163 779 l 1
 163 605 l 1
 163 430 l 1
 171 430 l 1
 206 434 242 442 270 453 c 0
 285 458 313 471 323 479 c 0
 335 487 352 505 360 517 c 0
 372 534 382 556 387 579 c 0
 389 591 389 619 387 631 c 0
 381 663 366 690 343 713 c 0
 329 727 316 735 297 745 c 0
 264 761 235 770 194 776 c 0
EndSplineSet
EndChar

StartChar: Q
Encoding: 81 81 48
Width: 697
Flags: HW
LayerCount: 2
Fore
SplineSet
323 823 m 0
 382 827 442 818 490 793 c 0
 545 765 584 723 612 662 c 0
 636 611 649 555 654 478 c 0
 656 454 656 365 654 341 c 0
 649 264 636 209 612 158 c 0
 606 144 595 123 589 114 c 0
 587 111 585 106 585 105 c 1
 586 105 597 86 611 62 c 0
 624 39 637 20 637 20 c 2
 638 18 634 13 631 10 c 0
 621 4 606 1 586 1 c 0
 563 1 546 5 539 12 c 0
 538 14 533 21 529 26 c 0
 526 31 523 37 521 39 c 2
 519 43 l 1
 511 38 l 2
 448 -1 358 -14 276 2 c 0
 225 13 180 37 145 70 c 0
 92 120 57 202 46 305 c 0
 42 340 42 358 42 410 c 0
 42 462 42 479 46 514 c 0
 55 593 77 660 112 710 c 0
 157 777 232 816 323 823 c 0
369 784 m 0
 344 789 319 785 289 771 c 0
 250 752 222 723 197 680 c 0
 167 626 150 565 144 476 c 0
 142 453 142 366 144 343 c 0
 150 254 167 193 197 139 c 0
 222 95 250 67 290 48 c 0
 333 28 365 28 408 48 c 0
 432 59 454 77 470 95 c 0
 475 100 478 105 479 106 c 0
 479 107 472 121 455 150 c 0
 441 174 429 193 428 194 c 0
 428 197 433 203 438 206 c 0
 460 217 508 215 524 203 c 2
 527 201 l 1
 528 204 l 2
 533 217 543 257 547 283 c 0
 553 323 554 352 554 410 c 0
 554 459 554 475 550 508 c 0
 545 564 531 614 513 654 c 0
 487 711 454 748 408 771 c 0
 393 778 383 781 369 784 c 0
EndSplineSet
EndChar

StartChar: R
Encoding: 82 82 49
Width: 545
Flags: HW
LayerCount: 2
Fore
SplineSet
81 818 m 0
 104 821 181 818 228 812 c 0
 311 802 383 777 429 743 c 0
 442 733 465 711 473 699 c 0
 486 680 497 658 502 635 c 0
 505 620 505 589 502 574 c 0
 497 551 486 529 473 510 c 0
 465 498 443 477 431 467 c 0
 394 439 339 418 276 406 c 2
 260 401 l 1
 383 212 l 2
 470 76 505 20 505 18 c 0
 505 15 500 10 493 7 c 0
 471 -3 426 -1 410 10 c 0
 408 11 355 93 285 202 c 2
 164 391 l 1
 163 203 l 1
 163 15 l 1
 159 12 l 2
 151 5 136 1 114 1 c 0
 90 1 74 4 66 12 c 2
 61 16 l 1
 61 206 l 1
 61 395 l 1
 57 397 l 2
 50 400 46 406 46 410 c 0
 46 413 50 418 57 421 c 2
 61 423 l 1
 61 605 l 1
 61 786 l 1
 57 788 l 2
 46 793 43 801 49 807 c 0
 55 812 66 816 81 818 c 0
185 777 m 0
 177 778 168 779 166 779 c 2
 163 779 l 1
 163 605 l 1
 163 430 l 1
 166 430 l 2
 173 430 202 433 216 436 c 0
 256 442 292 455 322 471 c 0
 364 496 392 534 401 580 c 0
 403 592 403 618 401 630 c 0
 395 661 381 687 359 710 c 0
 342 726 326 738 299 749 c 0
 266 764 228 773 185 777 c 0
EndSplineSet
EndChar

StartChar: S
Encoding: 83 83 50
Width: 545
Flags: HW
LayerCount: 2
Fore
SplineSet
248 823 m 0
 262 824 305 823 322 822 c 0
 389 814 436 794 462 759 c 0
 476 741 485 713 485 690 c 0
 485 684 485 683 481 680 c 0
 473 673 458 669 435 669 c 0
 411 669 396 673 388 680 c 0
 384 683 384 684 384 689 c 0
 384 697 381 713 378 722 c 0
 373 738 362 754 350 764 c 0
 342 770 323 779 313 782 c 0
 293 787 265 787 250 783 c 0
 219 773 195 753 179 720 c 0
 165 691 158 657 158 614 c 0
 158 596 158 590 159 583 c 0
 164 557 176 535 196 511 c 0
 219 483 253 457 314 420 c 0
 347 401 365 389 385 374 c 0
 444 329 476 283 484 232 c 0
 485 223 485 216 485 200 c 0
 483 155 477 123 462 92 c 0
 439 46 402 18 349 4 c 0
 316 -4 283 -7 244 -4 c 0
 176 0 127 17 96 47 c 0
 83 61 74 76 68 95 c 0
 65 104 61 121 61 129 c 0
 61 135 62 136 66 139 c 0
 74 146 89 151 113 151 c 0
 135 151 151 146 159 139 c 0
 163 136 163 135 163 126 c 0
 166 88 183 59 215 44 c 0
 230 36 247 33 270 33 c 0
 299 33 328 48 347 75 c 0
 371 105 382 146 384 200 c 0
 384 222 383 235 378 251 c 0
 368 289 340 322 294 358 c 0
 275 371 259 382 226 401 c 0
 181 429 155 448 131 468 c 0
 90 503 65 541 57 581 c 0
 56 588 56 594 56 614 c 0
 56 660 63 692 79 726 c 0
 93 754 111 775 137 791 c 0
 166 808 204 819 248 823 c 0
EndSplineSet
EndChar

StartChar: T
Encoding: 84 84 51
Width: 516
Flags: HW
LayerCount: 2
Fore
SplineSet
81 818 m 0
 84 818 164 819 262 819 c 0
 426 818 437 818 444 817 c 0
 459 813 470 807 470 801 c 0
 470 794 459 787 444 783 c 0
 437 782 429 782 373 781 c 2
 309 781 l 1
 309 398 l 1
 309 16 l 1
 305 12 l 2
 298 5 282 1 260 1 c 0
 236 1 220 4 212 12 c 2
 208 16 l 1
 208 398 l 1
 208 781 l 1
 143 781 l 2
 87 782 79 782 72 783 c 0
 57 787 46 794 46 801 c 0
 46 808 61 815 81 818 c 0
EndSplineSet
EndChar

StartChar: U
Encoding: 85 85 52
Width: 545
Flags: HW
LayerCount: 2
Fore
SplineSet
97 818 m 0
 105 819 128 818 136 817 c 0
 146 814 155 811 159 807 c 2
 163 804 l 1
 163 471 l 2
 164 107 163 137 169 114 c 0
 179 77 201 51 234 39 c 0
 257 31 289 31 312 39 c 0
 345 51 368 77 378 114 c 0
 384 137 383 107 384 471 c 2
 385 804 l 1
 388 808 l 2
 397 815 413 818 436 818 c 0
 458 818 474 814 481 807 c 2
 485 803 l 1
 485 476 l 2
 485 252 485 146 484 139 c 0
 477 79 445 37 389 14 c 0
 323 -12 224 -12 158 14 c 0
 102 37 69 79 62 139 c 0
 61 146 61 252 61 476 c 2
 61 803 l 1
 63 805 l 2
 68 811 81 816 97 818 c 0
EndSplineSet
EndChar

StartChar: V
Encoding: 86 86 53
Width: 576
Flags: HW
LayerCount: 2
Fore
SplineSet
81 818 m 0
 90 819 112 818 121 817 c 0
 136 813 145 808 147 802 c 0
 147 800 179 641 218 447 c 2
 289 96 l 1
 358 450 l 2
 413 721 430 803 431 805 c 0
 439 816 476 822 505 816 c 0
 519 814 530 807 530 801 c 0
 530 797 375 19 374 16 c 0
 372 10 360 5 344 2 c 0
 335 0 241 0 232 2 c 0
 216 5 205 10 203 16 c 0
 202 19 46 797 46 801 c 0
 46 804 51 809 57 812 c 0
 62 814 71 817 81 818 c 0
EndSplineSet
EndChar

StartChar: W
Encoding: 87 87 54
Width: 819
Flags: HW
LayerCount: 2
Fore
SplineSet
81 818 m 0
 84 818 93 819 100 819 c 0
 124 818 143 812 146 803 c 0
 146 802 171 647 201 460 c 0
 230 272 253 118 253 118 c 1
 253 118 277 264 306 443 c 0
 341 658 359 771 360 773 c 0
 362 778 371 782 382 785 c 0
 390 787 395 788 410 788 c 0
 425 788 429 787 437 785 c 0
 448 782 457 778 459 773 c 0
 460 771 478 658 513 443 c 0
 542 264 566 118 566 118 c 1
 566 118 589 272 618 460 c 0
 648 647 673 802 673 803 c 0
 675 809 684 814 699 817 c 0
 711 819 734 819 746 817 c 0
 762 813 773 807 773 801 c 0
 773 794 652 16 650 14 c 0
 647 8 632 3 615 1 c 0
 604 0 527 0 516 1 c 0
 500 3 486 8 482 14 c 0
 480 16 473 63 445 234 c 0
 426 353 410 452 410 452 c 1
 410 452 393 353 374 234 c 0
 346 63 339 16 337 14 c 0
 333 8 319 3 304 1 c 0
 292 0 215 0 204 1 c 0
 187 3 172 8 169 14 c 0
 167 16 46 794 46 801 c 0
 46 808 61 815 81 818 c 0
EndSplineSet
EndChar

StartChar: X
Encoding: 88 88 55
Width: 545
Flags: HW
LayerCount: 2
Fore
SplineSet
96 818 m 0
 105 819 126 818 135 816 c 0
 145 815 151 813 157 809 c 0
 161 806 161 805 217 674 c 0
 268 553 273 541 274 544 c 0
 274 545 300 604 330 675 c 0
 371 770 385 804 387 807 c 0
 391 811 400 814 411 817 c 0
 421 819 446 819 456 817 c 0
 471 814 482 809 484 803 c 0
 485 801 479 785 404 610 c 2
 324 420 l 1
 409 221 l 2
 456 110 494 19 494 18 c 0
 494 16 492 14 490 12 c 0
 474 -3 415 -4 397 11 c 0
 395 13 382 43 334 156 c 0
 301 233 274 297 273 298 c 0
 273 299 251 248 213 158 c 0
 168 54 152 14 150 12 c 0
 139 2 105 -3 78 3 c 0
 64 5 52 12 52 18 c 0
 52 19 90 110 137 221 c 2
 222 420 l 1
 141 609 l 2
 97 712 61 799 61 801 c 0
 61 804 67 809 73 812 c 0
 78 814 86 817 96 818 c 0
EndSplineSet
EndChar

StartChar: Y
Encoding: 89 89 56
Width: 545
Flags: HW
LayerCount: 2
Fore
SplineSet
96 818 m 0
 105 819 126 818 135 816 c 0
 145 815 151 813 157 809 c 0
 160 806 161 804 217 676 c 2
 272 546 l 1
 329 675 l 2
 370 769 385 804 387 807 c 0
 391 811 400 814 411 817 c 0
 421 819 446 819 456 817 c 0
 471 814 482 809 484 803 c 0
 485 801 479 786 404 613 c 2
 324 427 l 1
 324 221 l 1
 324 16 l 1
 319 12 l 2
 312 5 296 1 274 1 c 0
 250 1 234 4 226 12 c 2
 222 16 l 1
 222 221 l 1
 222 427 l 1
 142 612 l 2
 97 714 61 799 61 801 c 0
 61 804 67 809 73 812 c 0
 78 814 86 817 96 818 c 0
EndSplineSet
EndChar

StartChar: Z
Encoding: 90 90 57
Width: 516
Flags: HW
LayerCount: 2
Fore
SplineSet
81 818 m 0
 84 818 164 819 262 819 c 0
 426 818 437 818 444 817 c 0
 460 813 471 806 470 800 c 0
 470 798 399 626 313 419 c 0
 227 211 157 40 156 39 c 0
 156 38 186 38 296 38 c 0
 426 37 437 37 444 36 c 0
 459 32 470 25 470 19 c 0
 470 12 459 6 443 2 c 0
 435 1 425 1 258 1 c 0
 91 1 81 1 73 2 c 0
 56 6 45 12 46 19 c 0
 46 21 117 193 203 401 c 0
 289 608 359 779 360 780 c 0
 360 781 330 781 220 781 c 0
 90 782 79 782 72 783 c 0
 57 787 46 794 46 801 c 0
 46 808 61 815 81 818 c 0
EndSplineSet
EndChar

StartChar: bracketleft
Encoding: 91 91 58
Width: 242
Flags: HW
LayerCount: 2
Fore
SplineSet
67 849 m 0
 70 849 97 850 126 850 c 0
 182 849 184 849 199 844 c 0
 206 841 212 834 212 831 c 0
 212 827 206 821 199 818 c 0
 187 814 180 813 156 812 c 2
 132 812 l 1
 132 410 l 1
 132 7 l 1
 156 7 l 2
 180 6 187 5 199 1 c 0
 206 -2 212 -8 212 -12 c 0
 212 -15 206 -22 199 -25 c 0
 184 -30 182 -30 123 -30 c 0
 73 -30 66 -30 58 -29 c 0
 46 -26 39 -22 35 -18 c 2
 31 -14 l 1
 31 410 l 1
 31 834 l 1
 33 836 l 2
 38 842 51 847 67 849 c 0
EndSplineSet
EndChar

StartChar: backslash
Encoding: 92 92 59
Width: 424
Flags: HW
LayerCount: 2
Fore
SplineSet
66 818 m 0
 94 821 126 814 131 804 c 0
 133 799 394 20 394 18 c 0
 394 15 387 9 381 6 c 0
 362 -1 335 -2 313 4 c 0
 304 6 296 11 294 15 c 0
 292 20 31 799 31 801 c 0
 31 804 36 809 40 811 c 0
 45 814 58 817 66 818 c 0
EndSplineSet
EndChar

StartChar: bracketright
Encoding: 93 93 60
Width: 242
Flags: HW
LayerCount: 2
Fore
SplineSet
66 849 m 0
 69 849 96 850 126 850 c 0
 170 849 180 849 185 848 c 0
 196 845 204 842 208 838 c 2
 212 834 l 1
 212 410 l 1
 212 -14 l 1
 208 -18 l 2
 204 -22 196 -26 185 -29 c 0
 178 -30 170 -30 122 -30 c 0
 61 -30 59 -30 45 -25 c 0
 37 -22 31 -15 31 -12 c 0
 31 -8 37 -2 45 1 c 0
 56 5 63 6 87 7 c 2
 111 7 l 1
 111 410 l 1
 111 812 l 1
 87 812 l 2
 63 813 56 814 45 818 c 0
 37 821 31 827 31 830 c 0
 31 834 35 840 40 842 c 0
 45 845 58 848 66 849 c 0
EndSplineSet
EndChar

StartChar: asciicircum
Encoding: 94 94 61
Width: 303
Flags: HW
LayerCount: 2
Fore
SplineSet
136 818 m 0
 155 821 185 817 196 810 c 0
 200 806 270 733 271 731 c 0
 273 727 271 723 266 720 c 0
 251 709 212 707 186 715 c 0
 180 717 179 718 166 731 c 2
 152 744 l 1
 137 731 l 2
 124 718 123 717 117 715 c 0
 91 707 52 709 37 720 c 0
 32 723 30 727 32 731 c 0
 32 732 50 751 70 771 c 0
 97 799 109 810 112 811 c 0
 117 814 126 817 136 818 c 0
EndSplineSet
EndChar

StartChar: underscore
Encoding: 95 95 62
Width: 545
Flags: HW
LayerCount: 2
Fore
SplineSet
36 -1 m 0
 39 -1 144 0 278 0 c 0
 535 -1 516 0 532 -6 c 0
 539 -9 546 -15 546 -19 c 0
 546 -22 539 -29 532 -32 c 0
 516 -38 533 -37 274 -37 c 0
 49 -37 36 -37 28 -36 c 0
 24 -35 16 -33 13 -32 c 0
 7 -29 0 -22 0 -19 c 0
 0 -11 14 -4 36 -1 c 0
EndSplineSet
EndChar

StartChar: a
Encoding: 97 97 63
Width: 516
Flags: HW
LayerCount: 2
Fore
SplineSet
228 618 m 0
 230 619 241 620 251 620 c 0
 327 621 385 602 419 567 c 0
 435 549 447 527 453 498 c 2
 456 487 l 1
 456 252 l 1
 456 16 l 1
 452 12 l 2
 445 5 429 1 407 1 c 0
 383 1 366 4 358 12 c 0
 354 16 354 16 351 15 c 0
 338 8 312 0 292 -3 c 0
 275 -5 239 -5 222 -3 c 0
 154 6 110 35 85 85 c 0
 69 118 61 155 61 205 c 0
 61 331 112 398 222 413 c 0
 230 414 243 414 263 414 c 0
 296 415 297 415 317 425 c 0
 327 429 331 432 337 437 c 0
 345 446 349 455 352 466 c 0
 354 472 354 474 353 482 c 0
 348 527 330 558 298 573 c 0
 282 580 279 582 250 581 c 0
 221 581 212 579 196 573 c 0
 178 566 165 553 163 537 c 0
 162 529 161 525 155 522 c 0
 131 509 72 512 63 527 c 0
 58 536 66 557 78 570 c 0
 93 587 117 599 151 608 c 0
 174 613 194 616 228 618 c 0
354 315 m 0
 354 381 354 385 352 385 c 0
 351 385 349 384 348 384 c 0
 341 382 315 378 301 377 c 0
 292 376 278 376 269 376 c 0
 251 377 245 376 231 369 c 0
 203 355 182 324 172 283 c 0
 160 237 160 173 172 127 c 0
 179 94 196 66 215 51 c 0
 227 42 248 33 256 33 c 0
 265 33 284 44 297 57 c 0
 325 85 344 135 350 195 c 0
 353 221 354 245 354 315 c 0
EndSplineSet
EndChar

StartChar: b
Encoding: 98 98 64
Width: 516
Flags: HW
LayerCount: 2
Fore
SplineSet
97 818 m 0
 105 819 128 818 136 817 c 0
 146 814 155 811 159 807 c 2
 163 804 l 1
 163 713 l 1
 164 621 l 1
 171 624 l 2
 182 628 207 635 223 637 c 0
 240 639 275 639 291 637 c 0
 337 630 371 611 398 579 c 0
 425 545 446 492 454 431 c 0
 458 402 460 378 461 334 c 0
 462 222 452 155 423 94 c 0
 405 54 373 23 336 9 c 0
 299 -5 256 -8 209 0 c 0
 194 2 173 7 165 11 c 2
 160 13 l 1
 158 10 l 2
 155 8 145 4 136 2 c 0
 125 0 100 0 89 2 c 0
 77 5 70 8 66 12 c 2
 61 16 l 1
 61 410 l 1
 61 803 l 1
 63 805 l 2
 68 811 81 816 97 818 c 0
262 599 m 0
 256 602 255 602 246 598 c 0
 207 585 179 544 169 487 c 0
 164 458 164 459 164 309 c 0
 164 158 163 161 169 135 c 0
 179 81 209 44 247 34 c 0
 256 32 260 33 271 39 c 0
 302 56 326 94 341 147 c 0
 355 196 360 253 359 334 c 0
 358 408 352 453 337 498 c 0
 320 550 294 585 262 599 c 0
EndSplineSet
EndChar

StartChar: c
Encoding: 99 99 65
Width: 516
Flags: HW
LayerCount: 2
Fore
SplineSet
238 618 m 0
 248 619 289 618 305 617 c 0
 362 612 408 595 432 569 c 0
 446 554 456 532 456 515 c 0
 456 510 456 509 452 506 c 0
 444 499 429 495 406 495 c 0
 375 495 354 502 354 514 c 0
 354 521 351 534 348 541 c 0
 340 558 325 570 305 577 c 0
 295 580 287 581 272 582 c 2
 259 582 l 1
 250 578 l 2
 233 569 216 553 204 535 c 0
 187 508 171 464 164 419 c 0
 155 356 155 259 164 196 c 0
 171 151 187 107 204 80 c 0
 216 62 233 46 250 37 c 2
 259 33 l 1
 272 33 l 2
 287 34 295 35 305 38 c 0
 325 45 340 57 348 75 c 0
 351 81 354 93 354 100 c 0
 354 104 355 106 358 109 c 0
 366 116 382 120 406 120 c 0
 429 120 444 116 452 109 c 0
 456 106 456 104 456 99 c 0
 456 87 449 68 442 57 c 0
 419 23 373 3 304 -3 c 0
 281 -5 240 -5 226 -3 c 0
 192 2 167 13 144 30 c 0
 120 47 103 69 90 100 c 0
 64 154 55 213 55 307 c 0
 55 401 64 460 90 514 c 0
 103 545 120 568 144 585 c 0
 170 604 199 614 238 618 c 0
EndSplineSet
EndChar

StartChar: d
Encoding: 100 100 66
Width: 516
Flags: HW
LayerCount: 2
Fore
SplineSet
390 818 m 0
 398 819 421 818 429 817 c 0
 440 814 448 811 452 807 c 2
 456 803 l 1
 456 410 l 1
 456 16 l 1
 452 12 l 2
 438 -2 383 -4 361 9 c 2
 357 12 l 1
 352 10 l 2
 338 5 311 -1 292 -3 c 0
 275 -5 240 -5 226 -3 c 0
 151 9 107 52 81 137 c 0
 68 181 61 232 61 307 c 0
 61 407 72 472 100 526 c 0
 129 584 178 616 250 620 c 0
 280 621 325 614 348 605 c 0
 351 604 353 603 354 603 c 2
 354 702 l 2
 354 801 354 803 356 805 c 0
 361 811 374 816 390 818 c 0
271 580 m 0
 267 581 263 582 262 582 c 0
 258 582 244 573 237 567 c 0
 200 538 174 475 167 393 c 0
 160 328 162 240 171 189 c 0
 184 109 212 57 252 37 c 2
 261 33 l 1
 267 34 l 2
 282 36 300 46 313 58 c 0
 336 82 349 118 353 163 c 0
 354 181 354 434 353 452 c 0
 351 479 344 506 336 523 c 0
 321 553 297 575 271 580 c 0
EndSplineSet
EndChar

StartChar: e
Encoding: 101 101 67
Width: 500
Flags: HW
LayerCount: 2
Fore
SplineSet
237 618 m 0
 242 619 273 618 282 617 c 0
 337 608 376 580 401 530 c 0
 428 478 440 410 440 321 c 2
 440 304 l 1
 436 300 l 2
 432 296 425 293 414 290 c 0
 408 289 394 289 282 288 c 2
 157 288 l 1
 157 284 l 2
 157 274 159 234 161 220 c 0
 166 160 182 107 205 74 c 0
 216 57 234 42 248 35 c 0
 253 33 254 33 265 33 c 0
 279 34 291 37 303 42 c 0
 314 48 322 55 328 65 c 0
 334 74 338 85 339 96 c 0
 339 106 341 110 349 113 c 0
 375 125 426 122 438 108 c 0
 440 105 440 103 440 95 c 0
 438 78 430 58 417 44 c 0
 401 27 371 11 337 4 c 0
 310 -2 273 -6 245 -5 c 0
 193 -3 157 11 126 42 c 0
 108 60 95 80 84 110 c 0
 67 154 58 195 56 263 c 2
 55 294 l 1
 52 295 l 2
 50 296 47 298 45 300 c 0
 40 305 40 308 45 313 c 0
 47 315 50 317 52 318 c 2
 55 319 l 1
 55 342 l 2
 58 423 69 479 94 527 c 0
 109 559 135 586 163 600 c 0
 179 608 203 615 222 617 c 0
 228 618 235 618 237 618 c 0
266 569 m 0
 262 572 257 577 254 578 c 2
 249 581 l 1
 244 578 l 2
 214 562 190 526 175 473 c 0
 165 438 159 398 157 344 c 2
 157 326 l 1
 248 326 l 1
 339 326 l 1
 339 331 l 2
 339 342 337 381 335 395 c 0
 327 479 302 540 266 569 c 0
EndSplineSet
EndChar

StartChar: f
Encoding: 102 102 68
Width: 378
Flags: HW
LayerCount: 2
Fore
SplineSet
193 823 m 0
 206 824 234 823 248 821 c 0
 324 808 360 762 364 674 c 0
 364 655 363 653 355 648 c 0
 335 637 290 637 270 648 c 0
 267 650 264 652 264 654 c 0
 263 656 262 663 262 673 c 0
 261 700 256 725 249 741 c 0
 242 758 228 776 217 782 c 2
 212 784 l 1
 207 781 l 2
 196 775 183 758 176 741 c 0
 172 732 168 714 165 699 c 0
 164 690 164 677 163 568 c 2
 163 447 l 1
 214 447 l 2
 256 446 266 446 272 445 c 0
 307 437 307 420 272 412 c 0
 266 411 256 411 214 410 c 2
 163 410 l 1
 163 221 l 1
 163 32 l 1
 166 31 l 2
 172 29 177 22 177 19 c 0
 177 12 167 6 151 2 c 0
 139 0 85 0 73 2 c 0
 57 6 46 12 46 19 c 0
 46 22 50 28 57 31 c 2
 61 33 l 1
 61 223 l 1
 61 415 l 1
 57 417 l 2
 50 420 46 425 46 429 c 0
 46 432 50 437 57 440 c 2
 61 442 l 1
 61 566 l 2
 62 701 62 697 68 723 c 0
 73 740 78 755 88 769 c 0
 107 800 145 818 193 823 c 0
EndSplineSet
EndChar

StartChar: g
Encoding: 103 103 69
Width: 516
Flags: HW
LayerCount: 2
Fore
SplineSet
238 618 m 0
 248 619 289 618 305 617 c 0
 320 616 340 613 353 609 c 2
 365 607 l 1
 373 609 l 2
 402 617 440 614 452 602 c 2
 456 598 l 1
 456 246 l 1
 456 -105 l 1
 453 -114 l 2
 443 -151 420 -174 380 -190 c 0
 315 -216 202 -216 137 -190 c 0
 91 -171 64 -139 61 -96 c 2
 61 -86 l 1
 66 -82 l 2
 74 -75 89 -71 113 -71 c 0
 135 -71 151 -75 159 -82 c 0
 163 -85 163 -86 163 -95 c 0
 166 -133 188 -160 225 -169 c 0
 233 -171 236 -171 259 -171 c 0
 281 -171 284 -171 292 -169 c 0
 323 -162 343 -143 351 -112 c 0
 353 -105 353 -102 354 -49 c 2
 354 5 l 1
 343 2 l 2
 307 -5 256 -7 225 -2 c 0
 193 2 167 13 144 30 c 0
 120 47 103 69 90 100 c 0
 64 154 55 213 55 307 c 0
 55 401 64 460 90 514 c 0
 103 545 120 568 144 585 c 0
 170 604 199 614 238 618 c 0
293 580 m 0
 289 581 279 581 272 582 c 2
 259 582 l 1
 250 578 l 2
 233 569 216 553 204 535 c 0
 190 513 176 480 169 444 c 0
 153 372 153 242 169 170 c 0
 179 124 194 88 216 63 c 0
 225 53 238 43 250 37 c 2
 259 33 l 1
 272 33 l 2
 287 34 295 35 305 38 c 0
 325 45 340 57 348 75 c 0
 354 88 354 76 354 307 c 0
 354 538 354 527 348 541 c 0
 344 549 337 558 331 563 c 0
 322 570 306 577 293 580 c 0
EndSplineSet
EndChar

StartChar: h
Encoding: 104 104 70
Width: 516
Flags: HW
LayerCount: 2
Fore
SplineSet
97 818 m 0
 105 819 128 818 136 817 c 0
 147 814 155 811 159 807 c 2
 163 803 l 1
 163 707 l 1
 163 609 l 1
 174 612 l 2
 197 616 228 620 254 620 c 0
 332 620 386 588 418 526 c 0
 440 482 452 431 455 360 c 0
 456 348 456 273 456 178 c 2
 456 16 l 1
 452 12 l 2
 445 5 429 1 407 1 c 0
 383 1 366 4 358 12 c 2
 354 16 l 1
 354 177 l 2
 354 271 354 346 353 358 c 0
 350 428 339 478 317 519 c 0
 303 548 285 569 262 579 c 2
 256 582 l 1
 243 582 l 2
 207 580 181 567 170 543 c 0
 162 527 163 548 163 268 c 2
 163 16 l 1
 159 12 l 2
 152 5 136 1 114 1 c 0
 90 1 74 4 66 12 c 2
 61 16 l 1
 61 410 l 1
 61 803 l 1
 63 805 l 2
 68 811 81 816 97 818 c 0
EndSplineSet
EndChar

StartChar: i
Encoding: 105 105 71
Width: 273
Flags: HW
LayerCount: 2
Fore
SplineSet
122 735 m 0
 131 736 151 736 160 733 c 0
 172 731 179 728 183 724 c 0
 188 719 188 715 183 710 c 0
 175 703 160 698 137 698 c 0
 121 698 110 699 99 703 c 0
 92 706 86 713 86 717 c 0
 86 725 99 732 122 735 c 0
106 613 m 0
 115 614 156 614 166 613 c 0
 184 611 198 606 202 599 c 0
 203 596 203 595 202 592 c 0
 200 589 191 583 188 583 c 0
 187 583 187 532 187 307 c 0
 187 82 187 32 188 32 c 0
 191 32 200 26 202 23 c 0
 203 20 203 18 202 15 c 0
 198 9 185 3 166 1 c 0
 155 0 119 0 108 1 c 0
 89 3 76 9 72 15 c 0
 71 18 71 20 72 23 c 0
 74 26 82 32 85 32 c 0
 86 32 86 82 86 307 c 0
 86 532 86 583 85 583 c 0
 82 583 74 589 72 592 c 0
 71 595 71 596 72 599 c 0
 76 605 89 611 106 613 c 0
EndSplineSet
EndChar

StartChar: j
Encoding: 106 106 72
Width: 364
Flags: HW
LayerCount: 2
Fore
SplineSet
238 735 m 0
 247 736 267 735 276 733 c 0
 288 731 296 728 300 724 c 0
 305 719 305 715 300 710 c 0
 292 703 276 698 253 698 c 0
 230 698 214 703 206 710 c 0
 201 714 201 718 204 722 c 0
 209 728 222 733 238 735 c 0
222 613 m 0
 233 614 284 614 293 612 c 0
 308 608 318 602 318 595 c 0
 318 592 313 586 307 584 c 2
 304 583 l 1
 304 279 l 2
 304 80 304 -31 303 -42 c 0
 299 -103 283 -149 254 -175 c 0
 237 -191 213 -203 183 -208 c 0
 169 -210 135 -210 122 -208 c 0
 61 -197 26 -165 9 -99 c 0
 4 -76 0 -43 0 -12 c 2
 0 0 l 1
 4 4 l 2
 12 12 28 15 52 15 c 0
 74 15 90 11 97 4 c 2
 101 0 l 1
 101 -12 l 2
 101 -39 105 -68 110 -90 c 0
 116 -122 130 -149 144 -162 c 0
 151 -168 152 -169 158 -164 c 0
 165 -158 172 -148 179 -135 c 0
 191 -110 199 -80 202 -39 c 0
 203 -30 203 91 203 279 c 2
 203 582 l 1
 199 584 l 2
 188 589 184 596 190 602 c 0
 196 607 207 611 222 613 c 0
EndSplineSet
EndChar

StartChar: k
Encoding: 107 107 73
Width: 485
Flags: HW
LayerCount: 2
Fore
SplineSet
97 818 m 0
 105 819 128 818 136 817 c 0
 146 814 155 811 159 807 c 2
 163 804 l 1
 163 610 l 1
 164 418 l 1
 260 519 l 2
 312 574 357 621 358 623 c 0
 361 626 369 628 378 631 c 0
 389 633 419 633 430 631 c 0
 440 628 450 624 453 620 c 0
 457 614 455 613 435 591 c 0
 418 574 264 410 255 401 c 2
 252 397 l 1
 353 210 l 2
 408 107 455 20 455 19 c 0
 455 15 448 9 441 6 c 0
 429 2 421 1 406 1 c 0
 390 1 382 2 371 5 c 0
 357 9 364 -4 270 171 c 2
 186 329 l 1
 174 316 l 1
 163 305 l 1
 163 161 l 1
 163 16 l 1
 159 12 l 2
 152 5 136 1 114 1 c 0
 90 1 74 4 66 12 c 2
 61 16 l 1
 61 410 l 1
 61 803 l 1
 63 805 l 2
 68 811 81 816 97 818 c 0
EndSplineSet
EndChar

StartChar: l
Encoding: 108 108 74
Width: 273
Flags: HW
LayerCount: 2
Fore
SplineSet
122 818 m 0
 130 819 153 818 161 817 c 0
 172 814 179 811 183 807 c 2
 187 803 l 1
 187 410 l 1
 187 16 l 1
 183 12 l 2
 176 5 160 1 138 1 c 0
 114 1 98 4 90 12 c 2
 86 16 l 1
 86 410 l 1
 86 803 l 1
 88 805 l 2
 93 811 106 816 122 818 c 0
EndSplineSet
EndChar

StartChar: m
Encoding: 109 109 75
Width: 728
Flags: HW
LayerCount: 2
Fore
SplineSet
222 618 m 0
 246 620 275 617 295 610 c 0
 321 603 342 586 358 566 c 0
 361 562 364 559 364 559 c 2
 365 559 367 562 370 566 c 0
 386 586 407 603 433 610 c 0
 467 621 514 621 548 610 c 0
 591 597 621 565 640 513 c 0
 656 470 664 426 667 364 c 0
 668 351 668 270 668 178 c 2
 668 16 l 1
 664 12 l 2
 657 5 640 1 618 1 c 0
 594 1 578 4 570 12 c 2
 566 16 l 1
 566 193 l 2
 565 371 565 376 561 411 c 0
 555 472 538 526 514 555 c 0
 506 566 493 578 490 578 c 0
 487 578 475 566 467 555 c 0
 443 526 426 472 420 411 c 0
 416 376 416 371 415 193 c 2
 415 16 l 1
 411 12 l 2
 404 5 388 1 366 1 c 0
 342 1 325 4 317 12 c 2
 313 16 l 1
 313 193 l 2
 312 371 312 376 308 411 c 0
 300 493 274 554 239 578 c 2
 233 581 l 1
 226 578 l 2
 203 567 186 545 175 513 c 0
 171 500 168 486 165 469 c 0
 164 459 164 438 163 237 c 2
 163 15 l 1
 159 12 l 2
 151 5 136 1 114 1 c 0
 90 1 74 4 66 12 c 2
 61 16 l 1
 61 307 l 1
 61 598 l 1
 66 602 l 2
 74 610 90 613 114 613 c 0
 130 613 139 612 150 608 c 2
 157 605 l 1
 166 608 l 2
 181 613 202 617 222 618 c 0
EndSplineSet
EndChar

StartChar: n
Encoding: 110 110 76
Width: 516
Flags: HW
LayerCount: 2
Fore
SplineSet
236 618 m 0
 321 625 384 593 418 526 c 0
 440 482 452 431 455 360 c 0
 456 348 456 273 456 178 c 2
 456 16 l 1
 452 12 l 2
 445 5 429 1 407 1 c 0
 383 1 366 4 358 12 c 2
 354 16 l 1
 354 177 l 2
 354 271 354 346 353 358 c 0
 350 428 339 478 317 519 c 0
 303 548 285 569 262 579 c 0
 255 583 252 583 240 579 c 0
 215 570 196 552 182 524 c 0
 174 508 170 493 166 469 c 0
 164 456 164 454 163 236 c 2
 163 15 l 1
 159 12 l 2
 151 5 136 1 114 1 c 0
 90 1 74 4 66 12 c 2
 61 16 l 1
 61 307 l 1
 61 598 l 1
 66 602 l 2
 81 616 137 618 157 604 c 2
 160 602 l 1
 172 606 l 2
 192 612 213 616 236 618 c 0
EndSplineSet
EndChar

StartChar: o
Encoding: 111 111 77
Width: 576
Flags: HW
LayerCount: 2
Fore
SplineSet
264 618 m 0
 316 622 368 613 409 593 c 0
 456 569 487 533 509 478 c 0
 519 452 525 428 529 397 c 0
 534 366 535 352 535 307 c 0
 535 262 534 248 529 217 c 0
 525 186 519 162 509 137 c 0
 487 81 456 46 409 22 c 0
 338 -13 239 -13 168 22 c 0
 121 46 90 81 68 137 c 0
 55 169 47 205 43 250 c 0
 41 269 41 346 43 365 c 0
 47 410 55 445 68 478 c 0
 90 533 121 569 168 593 c 0
 196 606 229 615 264 618 c 0
309 579 m 0
 300 582 283 583 276 581 c 0
 252 575 229 561 212 543 c 0
 200 532 192 521 182 505 c 0
 155 457 142 393 142 307 c 0
 142 257 147 214 156 179 c 0
 175 103 213 54 267 36 c 0
 274 34 278 34 289 34 c 0
 299 34 302 34 309 36 c 0
 329 43 350 56 366 72 c 0
 377 83 384 94 394 110 c 0
 421 158 434 221 434 307 c 0
 434 357 430 400 421 435 c 0
 402 511 362 562 309 579 c 0
EndSplineSet
EndChar

StartChar: p
Encoding: 112 112 78
Width: 500
Flags: HW
LayerCount: 2
Fore
SplineSet
233 618 m 0
 241 619 273 618 284 616 c 0
 317 612 343 602 366 585 c 0
 376 578 393 559 400 549 c 0
 425 515 443 464 450 407 c 0
 454 374 454 360 454 307 c 0
 454 254 454 241 450 208 c 0
 443 151 425 100 400 66 c 0
 393 56 376 37 366 30 c 0
 335 6 297 -4 250 -4 c 0
 220 -4 196 -1 173 6 c 2
 163 10 l 1
 163 -89 l 1
 163 -188 l 1
 159 -193 l 2
 152 -200 136 -204 114 -204 c 0
 90 -204 74 -201 66 -193 c 2
 61 -188 l 1
 61 205 l 1
 61 598 l 1
 66 602 l 2
 72 608 86 612 105 614 c 0
 122 615 146 611 156 605 c 2
 159 603 l 1
 171 607 l 2
 188 613 203 616 233 618 c 0
262 577 m 0
 252 582 247 583 240 580 c 0
 225 575 208 563 198 551 c 0
 181 528 170 503 165 466 c 0
 164 454 164 441 164 307 c 0
 164 173 164 160 165 148 c 0
 170 111 181 86 198 63 c 0
 206 54 215 46 227 40 c 0
 240 34 247 32 254 34 c 0
 265 38 284 51 294 63 c 0
 316 89 331 124 341 170 c 0
 349 206 353 251 353 307 c 0
 353 401 343 463 317 515 c 0
 303 544 284 566 262 577 c 0
EndSplineSet
EndChar

StartChar: q
Encoding: 113 113 79
Width: 500
Flags: HW
LayerCount: 2
Fore
SplineSet
229 618 m 0
 242 619 273 618 288 617 c 0
 301 615 322 610 334 606 c 2
 343 603 l 1
 347 605 l 2
 370 618 422 616 436 602 c 2
 440 598 l 1
 440 205 l 1
 440 -188 l 1
 436 -193 l 2
 429 -200 413 -204 391 -204 c 0
 367 -204 351 -201 343 -193 c 2
 339 -188 l 1
 339 -89 l 1
 339 10 l 1
 335 8 l 2
 328 5 300 -1 288 -3 c 0
 270 -5 234 -5 218 -3 c 0
 185 2 159 13 135 30 c 0
 125 37 107 55 100 66 c 0
 75 100 58 151 51 208 c 0
 47 241 47 254 47 307 c 0
 47 360 47 374 51 407 c 0
 58 464 75 515 100 549 c 0
 107 560 125 578 135 585 c 0
 162 604 191 614 229 618 c 0
261 580 m 0
 254 583 252 582 244 579 c 0
 228 573 209 556 197 539 c 0
 190 528 178 504 173 490 c 0
 156 443 147 387 147 307 c 0
 147 227 156 171 173 124 c 0
 178 110 190 87 197 76 c 0
 210 59 230 41 245 35 c 0
 252 33 253 33 258 34 c 0
 266 35 283 44 291 50 c 0
 310 66 324 91 332 123 c 0
 339 151 339 147 339 307 c 0
 339 441 338 453 337 466 c 0
 332 503 321 528 303 551 c 0
 293 564 276 576 261 580 c 0
EndSplineSet
EndChar

StartChar: r
Encoding: 114 114 80
Width: 454
Flags: HW
LayerCount: 2
Fore
SplineSet
225 618 m 0
 236 619 259 619 273 618 c 0
 341 613 388 596 410 565 c 0
 421 549 427 526 422 517 c 0
 420 513 409 509 400 506 c 0
 370 500 331 506 325 518 c 0
 324 520 323 525 322 530 c 0
 319 557 297 577 267 581 c 0
 247 584 234 581 221 574 c 0
 208 567 198 558 189 545 c 0
 177 525 171 507 166 475 c 0
 164 462 164 461 163 247 c 2
 163 32 l 1
 166 31 l 2
 172 29 177 22 177 19 c 0
 177 12 167 6 151 2 c 0
 139 0 85 0 73 2 c 0
 57 6 46 12 46 19 c 0
 46 22 50 28 57 31 c 2
 61 33 l 1
 61 315 l 1
 61 598 l 1
 66 602 l 2
 78 614 118 617 144 609 c 0
 148 608 154 606 155 606 c 0
 157 604 158 605 162 606 c 0
 176 611 203 617 225 618 c 0
EndSplineSet
EndChar

StartChar: s
Encoding: 115 115 81
Width: 516
Flags: HW
LayerCount: 2
Fore
SplineSet
237 618 m 0
 246 619 293 618 305 617 c 0
 363 612 408 595 432 569 c 0
 446 554 456 532 456 515 c 0
 456 510 456 509 452 506 c 0
 444 499 429 495 406 495 c 0
 375 495 354 502 354 514 c 0
 354 521 351 534 348 541 c 0
 342 554 331 564 319 570 c 0
 304 578 293 581 268 582 c 0
 243 582 233 580 218 572 c 0
 186 557 166 527 159 484 c 0
 157 468 157 442 160 431 c 0
 171 387 209 355 295 319 c 0
 333 304 354 294 379 279 c 0
 401 264 422 244 433 228 c 0
 440 218 450 199 453 187 c 0
 455 178 455 176 455 158 c 0
 455 135 454 123 449 106 c 0
 432 38 376 3 282 -4 c 0
 263 -5 228 -5 208 -3 c 0
 146 4 102 22 79 51 c 0
 70 64 62 81 61 96 c 2
 61 104 l 1
 66 109 l 2
 74 116 89 120 113 120 c 0
 135 120 151 116 159 109 c 0
 162 106 163 104 163 97 c 0
 165 81 173 63 184 52 c 0
 191 46 206 40 219 36 c 0
 228 34 230 34 252 34 c 0
 272 34 275 34 282 36 c 0
 328 50 353 93 353 158 c 0
 353 174 353 176 351 185 c 0
 346 204 333 225 317 240 c 0
 293 260 266 276 216 296 c 0
 174 313 143 331 117 349 c 0
 104 358 83 379 76 390 c 0
 61 414 54 433 55 462 c 0
 58 532 92 578 154 602 c 0
 176 610 205 616 237 618 c 0
EndSplineSet
EndChar

StartChar: t
Encoding: 116 116 82
Width: 364
Flags: HW
LayerCount: 2
Fore
SplineSet
168 818 m 0
 176 819 199 818 207 817 c 0
 218 814 225 811 229 807 c 2
 233 803 l 1
 233 709 l 1
 233 614 l 1
 267 614 l 2
 302 613 308 613 321 608 c 0
 328 605 334 599 334 596 c 0
 334 592 328 586 321 583 c 0
 308 578 302 578 267 577 c 2
 233 577 l 1
 233 304 l 1
 233 32 l 1
 237 31 l 2
 243 29 248 22 248 19 c 0
 248 12 237 6 221 2 c 0
 209 0 155 0 143 2 c 0
 127 6 117 12 117 19 c 0
 117 22 121 28 128 31 c 2
 132 33 l 1
 132 304 l 1
 132 577 l 1
 98 577 l 2
 62 578 57 578 45 583 c 0
 37 586 31 592 31 596 c 0
 31 599 37 605 45 608 c 0
 57 613 62 613 98 614 c 2
 132 614 l 1
 132 709 l 2
 132 802 132 803 134 805 c 0
 139 811 152 816 168 818 c 0
EndSplineSet
EndChar

StartChar: u
Encoding: 117 117 83
Width: 516
Flags: HW
LayerCount: 2
Fore
SplineSet
97 613 m 0
 105 614 128 613 136 612 c 0
 147 609 155 606 159 602 c 2
 163 598 l 1
 163 437 l 2
 163 343 163 268 164 256 c 0
 167 186 178 136 200 95 c 0
 214 66 232 46 255 36 c 0
 262 32 266 32 278 36 c 0
 303 45 321 62 335 90 c 0
 343 106 347 121 351 145 c 0
 353 158 353 161 354 379 c 2
 355 599 l 1
 358 603 l 2
 367 610 384 613 407 613 c 0
 429 613 445 609 452 602 c 2
 456 598 l 1
 456 307 l 1
 456 16 l 1
 452 12 l 2
 438 -2 383 -4 361 9 c 2
 357 12 l 1
 346 9 l 2
 297 -8 238 -9 194 5 c 0
 153 18 121 47 99 88 c 0
 77 132 65 183 62 254 c 0
 61 266 61 341 61 436 c 2
 61 598 l 1
 63 600 l 2
 68 606 81 611 97 613 c 0
EndSplineSet
EndChar

StartChar: v
Encoding: 118 118 84
Width: 485
Flags: HW
LayerCount: 2
Fore
SplineSet
81 613 m 0
 84 613 93 614 100 614 c 0
 123 613 141 607 145 599 c 0
 146 598 169 485 195 349 c 0
 222 214 243 102 243 102 c 1
 243 102 264 214 291 350 c 0
 328 541 339 598 341 600 c 0
 348 611 385 617 414 611 c 0
 428 608 439 602 439 596 c 0
 439 594 415 463 384 305 c 0
 344 96 328 16 327 14 c 0
 323 8 309 3 294 1 c 0
 282 0 204 0 193 1 c 0
 177 3 163 8 159 14 c 0
 158 16 141 96 101 305 c 0
 70 463 46 594 46 596 c 0
 46 603 61 610 81 613 c 0
EndSplineSet
EndChar

StartChar: w
Encoding: 119 119 85
Width: 758
Flags: HW
LayerCount: 2
Fore
SplineSet
51 613 m 0
 59 614 82 613 90 612 c 0
 105 608 115 603 117 597 c 0
 117 595 141 481 170 343 c 0
 208 163 223 94 223 96 c 0
 224 97 247 211 276 348 c 0
 305 485 330 599 331 600 c 0
 337 609 366 616 391 613 c 0
 409 611 423 606 428 600 c 0
 429 598 446 518 482 348 c 0
 511 211 535 97 536 96 c 0
 536 94 551 164 589 345 c 0
 626 520 643 598 644 600 c 0
 649 606 663 611 681 613 c 0
 707 616 736 609 742 599 c 0
 743 597 739 574 683 307 c 0
 650 148 622 17 622 16 c 0
 620 12 613 8 605 5 c 0
 593 1 588 1 537 1 c 0
 485 1 479 1 467 5 c 0
 459 8 453 12 451 16 c 0
 451 17 434 94 415 185 c 0
 396 276 380 352 380 352 c 2
 380 353 363 277 344 185 c 0
 325 93 308 16 307 15 c 0
 305 10 294 5 279 2 c 0
 270 0 176 0 167 2 c 0
 151 5 139 10 137 16 c 0
 137 17 109 148 76 307 c 0
 20 574 15 597 16 599 c 0
 20 605 34 611 51 613 c 0
EndSplineSet
EndChar

StartChar: x
Encoding: 120 120 86
Width: 485
Flags: HW
LayerCount: 2
Fore
SplineSet
90 613 m 0
 99 614 120 613 129 611 c 0
 139 610 145 608 151 604 c 0
 154 601 157 596 199 512 c 0
 223 462 243 422 243 422 c 1
 243 422 263 462 288 512 c 0
 329 597 332 601 336 604 c 0
 340 607 349 610 358 612 c 0
 368 614 393 614 403 612 c 0
 418 608 430 602 430 596 c 0
 430 594 401 536 362 455 c 2
 294 316 l 1
 367 169 l 2
 408 86 439 20 439 18 c 0
 439 15 434 10 427 7 c 0
 405 -3 359 -1 343 10 c 0
 341 12 331 34 292 112 c 0
 265 167 243 211 243 211 c 1
 243 211 221 167 194 112 c 0
 142 6 144 10 133 6 c 0
 114 -2 76 -1 58 7 c 0
 51 10 46 15 46 18 c 0
 46 20 78 86 119 169 c 2
 191 316 l 1
 123 455 l 2
 84 536 55 594 55 596 c 0
 55 599 61 604 67 607 c 0
 72 609 80 612 90 613 c 0
EndSplineSet
EndChar

StartChar: y
Encoding: 121 121 87
Width: 485
Flags: HW
LayerCount: 2
Fore
SplineSet
81 613 m 0
 84 613 93 614 100 614 c 0
 123 613 141 607 145 599 c 0
 146 598 169 512 195 410 c 0
 222 307 243 222 243 222 c 1
 243 222 265 307 291 410 c 0
 322 533 339 598 341 600 c 0
 348 611 385 617 414 611 c 0
 428 609 439 602 439 596 c 0
 439 592 243 -185 241 -189 c 0
 232 -207 161 -210 144 -193 c 0
 142 -191 140 -187 140 -186 c 0
 140 -185 152 -138 166 -83 c 2
 191 19 l 1
 119 306 l 2
 79 464 46 594 46 596 c 0
 46 599 51 604 57 607 c 0
 62 609 71 612 81 613 c 0
EndSplineSet
EndChar

StartChar: z
Encoding: 122 122 88
Width: 485
Flags: HW
LayerCount: 2
Fore
SplineSet
81 613 m 0
 84 613 158 614 247 614 c 0
 395 613 407 613 414 612 c 0
 429 608 439 602 439 596 c 0
 439 594 379 475 299 315 c 2
 158 39 l 1
 282 38 l 2
 396 37 407 37 414 36 c 0
 429 32 439 25 439 19 c 0
 439 12 429 6 413 2 c 0
 405 1 395 1 243 1 c 0
 91 1 81 1 73 2 c 0
 58 6 46 12 46 18 c 0
 46 20 106 139 186 299 c 2
 328 577 l 1
 204 577 l 2
 90 578 79 578 72 579 c 0
 57 583 46 589 46 596 c 0
 46 603 61 610 81 613 c 0
EndSplineSet
EndChar

StartChar: braceleft
Encoding: 123 123 89
Width: 273
Flags: HW
LayerCount: 2
Fore
SplineSet
180 849 m 0
 202 851 226 847 237 840 c 0
 245 834 244 827 234 820 c 0
 214 807 204 793 198 765 c 0
 189 729 184 688 184 620 c 0
 184 564 182 529 176 497 c 0
 169 456 161 437 143 419 c 2
 134 410 l 1
 143 400 l 2
 161 382 169 364 176 323 c 0
 182 291 184 256 184 201 c 0
 184 132 189 90 198 54 c 0
 204 26 214 12 234 -1 c 0
 245 -8 245 -16 233 -22 c 0
 218 -31 186 -33 163 -27 c 0
 144 -22 121 -4 109 18 c 0
 102 30 95 50 91 77 c 0
 85 110 83 143 83 199 c 0
 83 268 79 309 70 347 c 0
 64 372 52 388 34 399 c 0
 23 406 23 413 34 420 c 0
 52 431 64 447 70 472 c 0
 79 510 83 552 83 622 c 0
 83 677 85 709 91 742 c 0
 98 783 107 805 126 823 c 0
 143 839 158 847 180 849 c 0
EndSplineSet
EndChar

StartChar: bar
Encoding: 124 124 90
Width: 303
Flags: HW
LayerCount: 2
Fore
SplineSet
137 818 m 0
 145 819 168 818 176 817 c 0
 187 814 195 811 199 807 c 2
 203 803 l 1
 203 410 l 1
 203 16 l 1
 199 12 l 2
 192 5 176 1 154 1 c 0
 130 1 113 4 105 12 c 2
 101 16 l 1
 101 410 l 1
 101 803 l 1
 103 805 l 2
 108 811 121 816 137 818 c 0
EndSplineSet
EndChar

StartChar: braceright
Encoding: 125 125 91
Width: 273
Flags: HW
LayerCount: 2
Fore
SplineSet
59 849 m 0
 68 850 73 850 86 848 c 0
 106 847 128 835 144 817 c 0
 160 801 168 784 175 748 c 0
 181 715 183 695 184 622 c 0
 185 552 186 537 191 505 c 0
 196 477 202 459 209 447 c 0
 214 439 227 427 237 422 c 0
 252 413 252 406 237 397 c 0
 227 392 214 380 209 372 c 0
 202 360 196 342 191 315 c 0
 186 282 185 268 184 199 c 0
 183 125 181 105 175 72 c 0
 170 45 164 28 156 16 c 0
 143 -4 119 -22 100 -27 c 0
 77 -33 44 -31 29 -22 c 0
 17 -15 19 -7 33 1 c 0
 37 3 43 8 47 12 c 0
 59 24 65 34 71 57 c 0
 79 94 83 134 83 201 c 0
 83 267 87 307 96 343 c 0
 101 363 107 376 117 389 c 0
 121 394 132 405 136 408 c 2
 138 410 l 1
 136 412 l 2
 132 415 121 425 117 430 c 0
 107 443 101 456 96 476 c 0
 87 512 83 552 83 618 c 0
 83 685 79 725 71 762 c 0
 65 785 59 795 47 807 c 0
 43 811 37 816 33 818 c 0
 23 823 19 830 22 835 c 0
 26 841 42 847 59 849 c 0
EndSplineSet
EndChar

StartChar: asciitilde
Encoding: 126 126 92
Width: 607
Flags: HW
LayerCount: 2
Fore
SplineSet
162 392 m 0
 200 395 243 392 272 385 c 0
 324 372 351 347 354 308 c 0
 355 295 357 289 362 281 c 0
 368 272 376 266 389 261 c 0
 397 259 432 259 440 261 c 0
 453 266 462 273 468 283 c 0
 472 289 475 300 475 306 c 0
 475 313 485 320 500 324 c 0
 511 326 541 326 552 324 c 0
 562 321 572 316 574 312 c 0
 578 306 574 287 567 274 c 0
 549 244 506 226 443 222 c 0
 405 219 364 222 335 229 c 0
 283 242 256 267 253 306 c 0
 252 319 250 326 245 334 c 0
 239 343 231 348 218 353 c 0
 210 355 175 355 167 353 c 0
 148 346 136 332 133 314 c 0
 131 304 130 300 123 297 c 0
 113 291 105 290 83 290 c 0
 67 290 61 290 55 291 c 0
 44 294 38 297 34 302 c 0
 31 305 31 306 31 312 c 0
 32 325 39 340 48 351 c 0
 68 374 110 388 162 392 c 0
EndSplineSet
EndChar

StartChar: Adieresis
Encoding: 196 196 93
Width: 576
Flags: HW
LayerCount: 2
Fore
SplineSet
190 894 m 0
 207 896 227 895 243 890 c 0
 259 886 267 879 267 872 c 0
 267 862 249 854 220 851 c 0
 192 848 160 855 150 865 c 0
 146 869 146 876 150 880 c 0
 156 886 172 892 190 894 c 0
352 894 m 0
 369 896 388 895 404 890 c 0
 420 886 429 879 429 872 c 0
 429 862 411 854 382 851 c 0
 354 848 321 855 311 865 c 0
 307 869 307 876 311 880 c 0
 317 886 334 892 352 894 c 0
238 818 m 0
 241 818 266 819 293 819 c 0
 343 818 347 818 359 813 c 0
 365 811 373 807 374 803 c 0
 375 800 530 22 530 18 c 0
 530 15 525 10 518 7 c 0
 491 -5 436 1 430 16 c 0
 430 17 414 90 397 178 c 0
 380 265 366 338 365 339 c 2
 365 341 l 1
 288 341 l 1
 212 341 l 1
 212 339 l 2
 211 338 196 265 179 178 c 0
 162 90 146 17 146 16 c 0
 144 10 135 5 120 2 c 0
 108 0 85 0 73 2 c 0
 58 6 46 12 46 18 c 0
 46 20 200 791 203 802 c 0
 204 809 219 815 238 818 c 0
323 549 m 2
 305 643 289 720 289 721 c 0
 289 722 272 646 254 551 c 2
 219 379 l 1
 289 379 l 1
 357 379 l 1
 323 549 l 2
EndSplineSet
EndChar

StartChar: Aring
Encoding: 197 197 94
Width: 576
Flags: HW
LayerCount: 2
Fore
SplineSet
272 984 m 0
 277 985 310 984 317 983 c 0
 348 976 366 963 374 940 c 0
 376 932 376 929 376 914 c 0
 376 898 376 896 374 888 c 0
 367 869 354 856 331 849 c 0
 317 845 308 844 289 844 c 0
 269 844 260 845 247 849 c 0
 223 856 210 869 203 888 c 0
 201 896 201 898 201 914 c 0
 201 929 201 932 203 940 c 0
 210 959 223 972 247 979 c 0
 251 981 258 982 262 983 c 0
 266 983 271 984 272 984 c 0
299 962 m 0
 295 964 291 965 289 965 c 0
 280 965 267 956 262 946 c 0
 257 937 256 927 256 914 c 0
 256 900 257 891 262 882 c 0
 267 872 280 863 288 863 c 0
 297 863 309 872 314 882 c 0
 319 891 321 900 321 914 c 0
 321 924 320 929 318 935 c 0
 314 949 309 957 299 962 c 0
238 818 m 0
 241 818 266 819 293 819 c 0
 343 818 347 818 359 813 c 0
 365 811 373 807 374 803 c 0
 375 800 530 22 530 18 c 0
 530 15 525 10 518 7 c 0
 491 -5 436 1 430 16 c 0
 430 17 414 90 397 178 c 0
 380 265 366 338 365 339 c 2
 365 341 l 1
 288 341 l 1
 212 341 l 1
 212 339 l 2
 211 338 196 265 179 178 c 0
 162 90 146 17 146 16 c 0
 144 10 135 5 120 2 c 0
 108 0 85 0 73 2 c 0
 58 6 46 12 46 18 c 0
 46 20 200 791 203 802 c 0
 204 809 219 815 238 818 c 0
323 549 m 2
 305 643 289 720 289 721 c 0
 289 722 272 646 254 551 c 2
 219 379 l 1
 289 379 l 1
 357 379 l 1
 323 549 l 2
EndSplineSet
EndChar

StartChar: AE
Encoding: 198 198 95
Width: 697
Flags: HW
LayerCount: 2
Fore
SplineSet
302 818 m 0
 303 819 375 819 462 819 c 0
 607 818 619 818 626 817 c 0
 641 813 651 807 651 801 c 0
 651 794 641 787 626 783 c 0
 619 782 608 782 509 781 c 2
 399 781 l 1
 399 605 l 1
 399 429 l 1
 494 429 l 2
 595 428 593 428 607 423 c 0
 625 416 625 404 607 397 c 0
 593 392 595 392 494 391 c 2
 399 391 l 1
 399 214 l 1
 399 38 l 1
 509 38 l 2
 608 37 619 37 626 36 c 0
 641 32 651 25 651 19 c 0
 651 12 641 6 625 2 c 0
 617 1 607 1 475 1 c 0
 343 1 334 1 326 2 c 0
 314 5 306 8 302 12 c 2
 298 16 l 1
 298 178 l 1
 298 341 l 1
 267 341 l 1
 237 341 l 1
 233 329 l 1
 168 97 146 15 144 13 c 0
 142 10 134 6 126 4 c 0
 97 -3 60 1 49 13 c 0
 46 15 46 16 46 20 c 0
 47 24 261 799 263 803 c 0
 266 810 279 816 302 818 c 0
298 470 m 1
 298 560 l 2
 297 560 249 384 248 381 c 0
 248 379 248 379 272 379 c 2
 298 379 l 1
 298 470 l 1
EndSplineSet
EndChar

StartChar: Ccedilla
Encoding: 199 199 96
Width: 545
Flags: HW
LayerCount: 2
Fore
SplineSet
256 823 m 0
 265 824 311 823 327 822 c 0
 416 813 474 782 496 732 c 0
 501 720 504 705 505 694 c 2
 505 684 l 1
 501 680 l 2
 493 673 478 669 455 669 c 0
 431 669 416 673 408 680 c 0
 404 683 403 684 403 689 c 0
 403 691 402 698 401 703 c 0
 397 729 384 751 366 764 c 0
 346 778 322 784 290 786 c 2
 275 786 l 1
 268 783 l 2
 235 767 208 729 189 673 c 0
 172 623 164 573 159 498 c 0
 157 471 157 349 159 323 c 0
 164 234 177 172 200 118 c 0
 217 79 241 49 268 36 c 2
 275 33 l 1
 290 33 l 2
 322 35 346 41 366 55 c 0
 384 68 397 90 401 116 c 0
 402 121 403 128 403 130 c 0
 403 135 404 136 408 139 c 0
 416 146 431 151 455 151 c 0
 478 151 493 146 501 139 c 2
 505 135 l 1
 505 125 l 2
 504 120 503 110 502 105 c 0
 489 56 449 23 382 6 c 0
 374 5 367 3 366 3 c 0
 363 3 363 3 367 -3 c 0
 381 -23 383 -48 372 -72 c 0
 364 -88 349 -101 327 -108 c 0
 316 -112 298 -115 282 -116 c 0
 249 -117 218 -106 223 -94 c 0
 225 -88 237 -83 254 -80 c 0
 264 -78 267 -76 272 -65 c 0
 279 -51 279 -32 272 -17 c 0
 270 -14 267 -9 265 -8 c 0
 262 -5 261 -5 252 -4 c 0
 179 3 129 43 97 119 c 0
 74 176 62 234 57 321 c 0
 55 347 55 473 57 500 c 0
 62 586 74 643 97 700 c 0
 110 733 128 759 150 779 c 0
 178 806 210 819 256 823 c 0
EndSplineSet
EndChar

StartChar: Odieresis
Encoding: 214 214 97
Width: 697
Flags: HW
LayerCount: 2
Fore
SplineSet
251 894 m 0
 268 896 287 895 303 890 c 0
 319 886 328 879 328 872 c 0
 328 862 310 854 281 851 c 0
 253 848 220 855 210 865 c 0
 206 869 206 876 210 880 c 0
 216 886 233 892 251 894 c 0
413 894 m 0
 430 896 449 895 465 890 c 0
 481 886 489 879 489 872 c 0
 489 862 471 854 442 851 c 0
 414 848 382 855 372 865 c 0
 368 869 368 876 372 880 c 0
 378 886 395 892 413 894 c 0
323 823 m 0
 382 827 442 818 490 793 c 0
 545 765 584 723 612 662 c 0
 636 611 649 555 654 478 c 0
 656 454 656 365 654 341 c 0
 649 264 636 209 612 158 c 0
 584 97 545 55 490 27 c 0
 429 -4 350 -13 276 2 c 0
 225 13 180 37 145 70 c 0
 92 120 57 202 46 305 c 0
 42 340 42 358 42 410 c 0
 42 462 42 479 46 514 c 0
 55 593 77 660 112 710 c 0
 157 777 232 816 323 823 c 0
369 784 m 0
 344 789 319 785 289 771 c 0
 250 752 222 723 197 680 c 0
 167 626 150 565 144 476 c 0
 142 453 142 366 144 343 c 0
 150 254 167 193 197 139 c 0
 222 95 250 67 290 48 c 0
 333 28 365 28 408 48 c 0
 448 67 476 95 501 139 c 0
 531 193 547 254 553 343 c 0
 555 366 555 453 553 476 c 0
 547 565 531 626 501 680 c 0
 476 724 448 752 408 771 c 0
 393 778 383 781 369 784 c 0
EndSplineSet
EndChar

StartChar: Oslash
Encoding: 216 216 98
Width: 697
Flags: HW
LayerCount: 2
Fore
SplineSet
323 823 m 0
 336 824 373 823 386 822 c 0
 410 819 438 813 457 807 c 0
 473 801 500 789 510 781 c 0
 512 780 513 782 519 792 c 0
 522 798 526 804 528 806 c 0
 535 814 551 818 575 818 c 0
 602 818 622 812 626 803 c 0
 627 800 628 800 594 742 c 2
 580 719 l 1
 587 710 l 2
 600 690 614 663 624 636 c 0
 640 591 650 543 654 478 c 0
 656 454 656 365 654 341 c 0
 650 276 640 228 624 183 c 0
 595 108 553 59 492 27 c 0
 412 -13 302 -15 219 22 c 0
 208 26 192 34 187 38 c 0
 185 39 184 38 178 28 c 0
 175 22 171 15 169 13 c 0
 162 5 146 1 122 1 c 0
 95 1 76 7 72 16 c 0
 71 19 69 19 103 77 c 2
 118 100 l 1
 111 110 l 2
 87 145 67 193 56 241 c 0
 45 292 42 334 42 410 c 0
 42 462 42 479 46 514 c 0
 55 593 77 660 112 710 c 0
 157 777 230 815 323 823 c 0
369 784 m 0
 344 789 319 785 289 771 c 0
 250 752 222 723 197 680 c 0
 167 626 150 565 144 476 c 0
 142 453 142 366 144 343 c 0
 148 287 156 248 168 208 c 0
 170 201 172 196 172 196 c 2
 173 196 470 707 473 714 c 2
 475 718 l 1
 468 726 l 2
 453 743 431 760 408 771 c 0
 393 778 383 781 369 784 c 0
529 611 m 0
 527 618 525 624 525 624 c 2
 524 624 227 112 224 105 c 2
 222 101 l 1
 229 93 l 2
 244 76 267 59 290 48 c 0
 333 28 365 28 408 48 c 0
 448 67 476 95 501 139 c 0
 531 193 547 254 553 343 c 0
 555 366 555 453 553 476 c 0
 549 532 541 571 529 611 c 0
EndSplineSet
EndChar

StartChar: Udieresis
Encoding: 220 220 99
Width: 607
Flags: HW
LayerCount: 2
Fore
SplineSet
206 894 m 0
 223 896 242 895 258 890 c 0
 274 886 283 879 283 872 c 0
 283 862 265 854 236 851 c 0
 208 848 175 855 165 865 c 0
 161 869 161 876 165 880 c 0
 171 886 188 892 206 894 c 0
368 894 m 0
 385 896 404 895 420 890 c 0
 436 886 444 879 444 872 c 0
 444 862 426 854 397 851 c 0
 369 848 337 855 327 865 c 0
 323 869 323 876 327 880 c 0
 333 886 350 892 368 894 c 0
97 818 m 0
 105 819 128 818 136 817 c 0
 147 814 155 811 159 807 c 2
 163 803 l 1
 163 493 l 2
 163 289 163 178 164 171 c 0
 168 127 182 95 207 70 c 0
 232 45 264 33 304 33 c 0
 322 33 337 35 351 40 c 0
 405 57 437 102 444 171 c 0
 445 178 445 289 445 493 c 2
 445 803 l 1
 450 807 l 2
 458 815 474 818 498 818 c 0
 520 818 536 814 543 807 c 2
 547 803 l 1
 547 492 l 2
 547 279 547 176 546 168 c 0
 543 134 531 104 515 79 c 0
 507 68 490 49 479 42 c 0
 441 14 393 -1 327 -4 c 0
 288 -6 243 -3 210 6 c 0
 176 14 152 25 129 42 c 0
 118 49 101 68 93 79 c 0
 77 104 65 134 62 168 c 0
 61 176 61 279 61 492 c 2
 61 803 l 1
 63 805 l 2
 68 811 81 816 97 818 c 0
EndSplineSet
EndChar

StartChar: adieresis
Encoding: 228 228 100
Width: 516
Flags: HW
LayerCount: 2
Fore
SplineSet
160 689 m 0
 177 691 196 690 212 685 c 0
 228 681 237 675 237 668 c 0
 237 658 218 649 189 646 c 0
 161 643 129 650 119 660 c 0
 115 664 115 671 119 675 c 0
 125 681 142 687 160 689 c 0
323 689 m 0
 340 691 359 690 375 685 c 0
 391 681 399 675 399 668 c 0
 399 658 381 649 352 646 c 0
 324 643 292 650 282 660 c 0
 278 664 278 671 282 675 c 0
 288 681 305 687 323 689 c 0
228 618 m 0
 230 619 241 620 251 620 c 0
 327 621 385 602 419 567 c 0
 435 549 447 527 453 498 c 2
 456 487 l 1
 456 252 l 1
 456 16 l 1
 452 12 l 2
 445 5 429 1 407 1 c 0
 383 1 366 4 358 12 c 0
 354 16 354 16 351 15 c 0
 338 8 312 0 292 -3 c 0
 275 -5 239 -5 222 -3 c 0
 154 6 110 35 85 85 c 0
 69 118 61 155 61 205 c 0
 61 331 112 398 222 413 c 0
 230 414 243 414 263 414 c 0
 296 415 297 415 317 425 c 0
 327 429 331 432 337 437 c 0
 345 446 349 455 352 466 c 0
 354 472 354 474 353 482 c 0
 348 527 330 558 298 573 c 0
 282 580 279 582 250 581 c 0
 221 581 212 579 196 573 c 0
 178 566 165 553 163 537 c 0
 162 529 161 525 155 522 c 0
 131 509 72 512 63 527 c 0
 58 536 66 557 78 570 c 0
 93 587 117 599 151 608 c 0
 174 613 194 616 228 618 c 0
354 315 m 0
 354 381 354 385 352 385 c 0
 351 385 349 384 348 384 c 0
 341 382 315 378 301 377 c 0
 292 376 278 376 269 376 c 0
 251 377 245 376 231 369 c 0
 203 355 182 324 172 283 c 0
 160 237 160 173 172 127 c 0
 179 94 196 66 215 51 c 0
 227 42 248 33 256 33 c 0
 265 33 284 44 297 57 c 0
 325 85 344 135 350 195 c 0
 353 221 354 245 354 315 c 0
EndSplineSet
EndChar

StartChar: aring
Encoding: 229 229 101
Width: 516
Flags: HW
LayerCount: 2
Fore
SplineSet
236 778 m 0
 253 781 279 780 296 775 c 0
 305 773 321 766 327 761 c 0
 334 754 339 744 343 735 c 0
 345 727 345 725 345 710 c 0
 345 694 345 691 343 683 c 0
 337 668 327 656 312 648 c 0
 297 642 278 638 258 638 c 0
 238 638 219 642 205 648 c 0
 189 656 179 668 173 683 c 0
 171 691 171 694 171 710 c 0
 171 725 171 727 173 735 c 0
 179 750 189 762 205 770 c 0
 214 774 222 776 236 778 c 0
268 757 m 0
 264 759 260 760 258 760 c 0
 250 760 237 750 232 741 c 0
 227 732 226 723 226 710 c 0
 226 696 227 686 232 677 c 0
 237 668 250 658 258 658 c 0
 266 658 279 668 284 677 c 0
 289 686 290 696 290 710 c 0
 290 720 290 724 288 730 c 0
 284 744 278 752 268 757 c 0
228 618 m 0
 230 619 241 620 251 620 c 0
 327 621 385 602 419 567 c 0
 435 549 447 527 453 498 c 2
 456 487 l 1
 456 252 l 1
 456 16 l 1
 452 12 l 2
 445 5 429 1 407 1 c 0
 383 1 366 4 358 12 c 0
 354 16 354 16 351 15 c 0
 338 8 312 0 292 -3 c 0
 275 -5 239 -5 222 -3 c 0
 154 6 110 35 85 85 c 0
 69 118 61 155 61 205 c 0
 61 331 112 398 222 413 c 0
 230 414 243 414 263 414 c 0
 296 415 297 415 317 425 c 0
 327 429 331 432 337 437 c 0
 345 446 349 455 352 466 c 0
 354 472 354 474 353 482 c 0
 348 527 330 558 298 573 c 0
 282 580 279 582 250 581 c 0
 221 581 212 579 196 573 c 0
 178 566 165 553 163 537 c 0
 162 529 161 525 155 522 c 0
 131 509 72 512 63 527 c 0
 58 536 66 557 78 570 c 0
 93 587 117 599 151 608 c 0
 174 613 194 616 228 618 c 0
354 315 m 0
 354 381 354 385 352 385 c 0
 351 385 349 384 348 384 c 0
 341 382 315 378 301 377 c 0
 292 376 278 376 269 376 c 0
 251 377 245 376 231 369 c 0
 203 355 182 324 172 283 c 0
 160 237 160 173 172 127 c 0
 179 94 196 66 215 51 c 0
 227 42 248 33 256 33 c 0
 265 33 284 44 297 57 c 0
 325 85 344 135 350 195 c 0
 353 221 354 245 354 315 c 0
EndSplineSet
EndChar

StartChar: ae
Encoding: 230 230 102
Width: 576
Flags: HW
LayerCount: 2
Fore
SplineSet
143 613 m 0
 161 614 197 613 213 611 c 0
 246 606 271 597 291 582 c 2
 299 575 l 1
 306 582 l 2
 322 597 343 606 370 611 c 0
 379 613 386 613 402 613 c 0
 417 613 425 613 434 611 c 0
 476 604 504 585 524 548 c 0
 541 517 556 466 561 415 c 0
 564 389 565 373 566 338 c 2
 566 304 l 1
 562 300 l 2
 558 296 551 293 540 290 c 0
 534 289 520 289 436 288 c 2
 339 288 l 1
 339 280 l 2
 339 269 341 228 342 215 c 0
 349 128 373 61 404 37 c 0
 411 33 413 32 423 37 c 0
 440 43 453 58 460 77 c 0
 462 86 465 101 465 109 c 0
 465 114 465 115 469 119 c 0
 473 122 476 123 482 125 c 0
 509 134 549 130 562 119 c 0
 566 114 566 114 566 108 c 0
 566 93 561 71 553 57 c 0
 534 21 492 1 425 -4 c 0
 370 -8 328 4 301 33 c 2
 294 40 l 1
 289 35 l 2
 277 24 255 10 237 5 c 0
 189 -11 128 -8 87 14 c 0
 69 24 51 39 40 56 c 0
 24 80 12 113 7 153 c 0
 5 172 5 238 7 257 c 0
 15 316 35 358 69 383 c 0
 96 403 130 414 174 414 c 2
 194 415 l 1
 204 419 l 2
 220 428 231 441 236 459 c 0
 239 472 236 499 229 519 c 0
 226 531 218 546 212 554 c 0
 205 562 197 568 187 572 c 0
 181 575 179 577 170 577 c 0
 140 578 120 565 113 540 c 0
 113 537 112 532 112 530 c 0
 112 526 111 525 108 522 c 0
 100 515 84 511 61 511 c 0
 37 511 22 515 14 522 c 0
 10 525 10 526 10 531 c 0
 10 543 18 561 29 572 c 0
 49 595 90 609 143 613 c 0
415 556 m 0
 413 559 408 564 406 566 c 2
 401 570 l 1
 396 565 l 2
 378 546 364 517 354 474 c 0
 345 438 341 401 339 347 c 2
 339 326 l 1
 402 326 l 1
 465 326 l 1
 465 347 l 2
 463 401 459 438 450 474 c 0
 441 511 430 537 415 556 c 0
239 376 m 0
 240 380 240 381 239 381 c 0
 238 381 233 380 230 379 c 0
 219 378 197 376 185 376 c 0
 173 376 170 375 158 367 c 0
 132 348 116 309 109 255 c 0
 107 236 107 174 109 155 c 0
 115 106 129 72 151 50 c 0
 158 43 170 35 173 35 c 0
 176 35 189 43 196 50 c 0
 221 75 236 121 238 186 c 0
 238 199 239 207 240 209 c 0
 241 212 241 215 240 228 c 0
 238 246 238 367 239 376 c 0
EndSplineSet
EndChar

StartChar: ccedilla
Encoding: 231 231 103
Width: 516
Flags: HW
LayerCount: 2
Fore
SplineSet
238 618 m 0
 248 619 289 618 305 617 c 0
 362 612 408 595 432 569 c 0
 446 554 456 532 456 515 c 0
 456 510 456 509 452 506 c 0
 444 499 429 495 406 495 c 0
 375 495 354 502 354 514 c 0
 354 521 351 534 348 541 c 0
 340 558 325 570 305 577 c 0
 295 580 287 581 272 582 c 2
 259 582 l 1
 250 578 l 2
 233 569 216 553 204 535 c 0
 190 513 176 480 169 444 c 0
 153 372 153 242 169 170 c 0
 179 124 194 88 216 63 c 0
 225 53 238 43 250 37 c 2
 259 33 l 1
 272 33 l 2
 287 34 295 35 305 38 c 0
 325 45 340 57 348 75 c 0
 351 81 354 93 354 100 c 0
 354 104 355 106 358 109 c 0
 366 116 382 120 406 120 c 0
 429 120 444 116 452 109 c 0
 456 106 456 104 456 99 c 0
 456 87 449 68 442 57 c 0
 427 33 398 16 361 7 c 0
 355 5 350 4 349 3 c 0
 348 3 349 1 351 -2 c 0
 374 -33 367 -75 335 -97 c 0
 317 -108 292 -115 260 -115 c 0
 241 -115 230 -114 220 -109 c 0
 204 -102 204 -92 220 -85 c 0
 225 -82 240 -79 244 -79 c 0
 251 -79 260 -64 262 -50 c 0
 264 -35 260 -16 251 -8 c 0
 248 -5 247 -5 238 -4 c 0
 200 0 170 11 144 30 c 0
 120 47 103 69 90 100 c 0
 64 154 55 213 55 307 c 0
 55 401 64 460 90 514 c 0
 103 545 120 568 144 585 c 0
 170 604 199 614 238 618 c 0
EndSplineSet
EndChar

StartChar: odieresis
Encoding: 246 246 104
Width: 576
Flags: HW
LayerCount: 2
Fore
SplineSet
190 689 m 0
 207 691 227 690 243 685 c 0
 259 681 267 675 267 668 c 0
 267 658 249 649 220 646 c 0
 192 643 160 650 150 660 c 0
 146 664 146 671 150 675 c 0
 156 681 172 687 190 689 c 0
352 689 m 0
 369 691 388 690 404 685 c 0
 420 681 429 675 429 668 c 0
 429 658 411 649 382 646 c 0
 354 643 321 650 311 660 c 0
 307 664 307 671 311 675 c 0
 317 681 334 687 352 689 c 0
264 618 m 0
 316 622 368 613 409 593 c 0
 456 569 487 533 509 478 c 0
 519 452 525 428 529 397 c 0
 534 366 535 352 535 307 c 0
 535 262 534 248 529 217 c 0
 525 186 519 162 509 137 c 0
 487 81 456 46 409 22 c 0
 338 -13 239 -13 168 22 c 0
 121 46 90 81 68 137 c 0
 55 169 47 205 43 250 c 0
 41 269 41 346 43 365 c 0
 47 410 55 445 68 478 c 0
 90 533 121 569 168 593 c 0
 196 606 229 615 264 618 c 0
309 579 m 0
 300 582 283 583 276 581 c 0
 252 575 229 561 212 543 c 0
 200 532 192 521 182 505 c 0
 155 457 142 393 142 307 c 0
 142 257 147 214 156 179 c 0
 175 103 213 54 267 36 c 0
 274 34 278 34 289 34 c 0
 299 34 302 34 309 36 c 0
 329 43 350 56 366 72 c 0
 377 83 384 94 394 110 c 0
 421 158 434 221 434 307 c 0
 434 357 430 400 421 435 c 0
 402 511 362 562 309 579 c 0
EndSplineSet
EndChar

StartChar: oslash
Encoding: 248 248 105
Width: 576
Flags: HW
LayerCount: 2
Fore
SplineSet
264 618 m 0
 308 621 355 615 391 601 c 2
 402 596 l 1
 407 600 l 2
 415 609 431 613 455 613 c 0
 482 613 501 607 505 598 c 0
 506 595 506 596 489 565 c 0
 482 553 476 543 475 542 c 0
 475 541 479 534 483 527 c 0
 508 491 522 449 529 397 c 0
 534 366 535 352 535 307 c 0
 535 262 534 248 529 217 c 0
 519 141 489 81 446 46 c 0
 409 16 363 -1 306 -4 c 0
 265 -7 219 0 185 13 c 2
 174 18 l 1
 170 14 l 2
 162 5 146 1 122 1 c 0
 95 1 76 7 72 16 c 0
 71 19 70 18 87 49 c 0
 94 61 100 72 101 73 c 0
 101 74 97 80 93 87 c 0
 64 130 49 180 43 250 c 0
 41 269 41 346 43 365 c 0
 47 410 55 445 68 478 c 0
 90 533 121 569 168 593 c 0
 196 606 229 615 264 618 c 0
309 579 m 0
 300 582 283 583 276 581 c 0
 267 579 258 575 250 570 c 0
 192 541 155 474 145 376 c 0
 141 335 141 275 146 236 c 0
 149 208 156 172 159 173 c 0
 160 173 369 536 370 538 c 0
 370 540 356 552 345 560 c 0
 334 567 320 575 309 579 c 0
422 429 m 0
 421 436 419 441 419 441 c 2
 419 442 224 109 208 79 c 1
 207 76 l 1
 214 68 l 2
 229 55 249 42 267 36 c 0
 274 34 278 34 289 34 c 0
 299 34 302 34 309 36 c 0
 329 43 350 56 366 72 c 0
 377 83 384 94 394 110 c 0
 421 158 434 221 434 307 c 0
 434 353 430 397 422 429 c 0
EndSplineSet
EndChar

StartChar: udieresis
Encoding: 252 252 106
Width: 516
Flags: HW
LayerCount: 2
Fore
SplineSet
160 689 m 0
 177 691 196 690 212 685 c 0
 228 681 237 675 237 668 c 0
 237 658 218 649 189 646 c 0
 161 643 129 650 119 660 c 0
 115 664 115 671 119 675 c 0
 125 681 142 687 160 689 c 0
323 689 m 0
 340 691 359 690 375 685 c 0
 391 681 399 675 399 668 c 0
 399 658 381 649 352 646 c 0
 324 643 292 650 282 660 c 0
 278 664 278 671 282 675 c 0
 288 681 305 687 323 689 c 0
97 613 m 0
 105 614 128 613 136 612 c 0
 147 609 155 606 159 602 c 2
 163 598 l 1
 163 437 l 2
 163 343 163 268 164 256 c 0
 167 186 178 136 200 95 c 0
 214 66 232 46 255 36 c 0
 262 32 266 32 278 36 c 0
 303 45 321 62 335 90 c 0
 343 106 347 121 351 145 c 0
 353 158 353 161 354 379 c 2
 355 599 l 1
 358 603 l 2
 367 610 384 613 407 613 c 0
 429 613 445 609 452 602 c 2
 456 598 l 1
 456 307 l 1
 456 16 l 1
 452 12 l 2
 438 -2 383 -4 361 9 c 2
 357 12 l 1
 346 9 l 2
 297 -8 238 -9 194 5 c 0
 153 18 121 47 99 88 c 0
 77 132 65 183 62 254 c 0
 61 266 61 341 61 436 c 2
 61 598 l 1
 63 600 l 2
 68 606 81 611 97 613 c 0
EndSplineSet
EndChar

StartChar: degree
Encoding: 176 176 107
Width: 424
Flags: HW
LayerCount: 2
Fore
SplineSet
186 818 m 0
 200 819 229 818 237 817 c 0
 253 813 263 807 263 801 c 0
 263 797 257 790 250 787 c 0
 240 784 230 782 213 781 c 0
 199 780 194 780 187 777 c 0
 178 774 172 771 164 764 c 0
 150 752 138 731 134 707 c 0
 132 697 132 668 134 658 c 0
 140 621 159 597 188 587 c 0
 195 585 200 585 213 584 c 0
 228 583 230 583 237 586 c 0
 249 591 263 601 271 612 c 0
 284 628 293 656 293 680 c 0
 293 684 294 685 296 688 c 0
 299 692 306 696 317 698 c 0
 329 701 358 701 370 698 c 0
 381 696 388 692 392 688 c 0
 394 685 394 684 394 673 c 0
 392 649 385 625 373 607 c 0
 370 603 364 597 359 592 c 0
 335 568 304 554 264 548 c 0
 230 543 170 546 135 555 c 0
 77 570 43 602 33 654 c 0
 31 666 31 699 33 711 c 0
 35 722 40 735 45 745 c 0
 67 787 113 812 186 818 c 0
EndSplineSet
EndChar

StartChar: quotesingle
Encoding: 39 39 108
Width: 121
Flags: HW
LayerCount: 2
Fore
SplineSet
46 818 m 0
 54 819 77 818 85 817 c 0
 96 814 104 811 108 807 c 2
 112 803 l 1
 112 740 l 2
 112 667 112 673 101 668 c 0
 81 658 40 658 20 668 c 0
 9 673 10 667 10 740 c 0
 10 801 10 803 12 805 c 0
 17 811 30 816 46 818 c 0
EndSplineSet
EndChar

StartChar: grave
Encoding: 96 96 109
Width: 151
Flags: HW
LayerCount: 2
Fore
SplineSet
60 818 m 0
 90 822 125 814 147 799 c 0
 174 781 187 741 187 687 c 0
 187 675 186 672 177 668 c 0
 157 658 116 658 96 668 c 0
 87 673 86 674 86 694 c 0
 85 724 80 746 73 762 c 0
 66 777 60 781 48 784 c 0
 35 788 26 795 26 801 c 0
 26 808 40 815 60 818 c 0
EndSplineSet
EndChar
